<?xml version="1.0" standalone="no"?>
<!DOCTYPE svg PUBLIC "-//W3C//DTD SVG 1.1//EN" "http://www.w3.org/Graphics/SVG/1.1/DTD/svg11.dtd" >
<svg xmlns="http://www.w3.org/2000/svg" xmlns:xlink="http://www.w3.org/1999/xlink" version="1.1">
<metadata>
Created by FontForge 20190801 at Sun Jul 14 16:52:12 1929
 By root
MWSoft 1.0
</metadata>
<defs>
<font id="Futura-Thin" horiz-adv-x="468" >
  <font-face 
    font-family="Futura Thin"
    font-weight="400"
    font-stretch="normal"
    units-per-em="1000"
    panose-1="0 0 0 0 0 0 0 0 0 0"
    ascent="800"
    descent="-200"
    x-height="417"
    cap-height="699"
    bbox="-138 -233 1049 947"
    underline-thickness="39"
    underline-position="-128"
    unicode-range="U+0020-F002"
  />
<missing-glyph horiz-adv-x="764" 
d="M47 0v764h670v-764h-670zM670 47v670h-576v-670h576z" />
    <glyph glyph-name=".notdef" horiz-adv-x="764" 
d="M47 0v764h670v-764h-670zM670 47v670h-576v-670h576z" />
    <glyph glyph-name=".null" horiz-adv-x="0" 
 />
    <glyph glyph-name="nonmarkingreturn" horiz-adv-x="256" 
 />
    <glyph glyph-name="space" unicode=" " horiz-adv-x="256" 
 />
    <glyph glyph-name="exclam" unicode="!" horiz-adv-x="278" 
d="M169 164h-28v551h28v-551zM189 31q0 -14 -10 -24t-24 -10t-24 10t-10 24t10 24t24 10q15 0 24.5 -9.5t9.5 -24.5z" />
    <glyph glyph-name="quotedbl" unicode="&#x22;" horiz-adv-x="227" 
d="M50 700h34v-270h-34v270zM175 700h34v-270h-34v270z" />
    <glyph glyph-name="numbersign" unicode="#" horiz-adv-x="737" 
d="M691 455l-7 -24l-162 -2l-54 -152h174l-7 -24l-175 -2l-87 -244h-35l90 248l-149 -4l-88 -244h-34l87 246h-166l7 24l165 2l58 152h-182l7 24l181 2l90 246h35l-88 -248l144 2l90 246h34l-87 -248h159zM488 432l-146 -3l-53 -152l143 2z" />
    <glyph glyph-name="dollar" unicode="$" horiz-adv-x="544" 
d="M470 205q0 -76 -45.5 -126.5t-130.5 -63.5v-81h-7v85q-70 0 -115 26.5t-73 81.5l26 13q19 -46 58 -71t104 -31v337q-88 43 -123 80q-39 41 -39 97q0 59 41.5 98.5t120.5 50.5v47h7v-46q51 -6 83 -22t53 -45l-22 -13q-17 25 -45.5 40t-68.5 15v-274q97 -47 134 -86
q42 -44 42 -112zM287 406v272q-61 -8 -95 -43t-34 -81t29 -80t100 -68zM440 200q0 56 -32.5 95t-113.5 77v-333q72 9 109 51t37 110z" />
    <glyph glyph-name="percent" unicode="%" horiz-adv-x="699" 
d="M685 163q0 -78 -34 -122t-94 -44t-93.5 43.5t-33.5 122.5t34 123t93 44q61 0 94.5 -43.5t33.5 -123.5zM569 706l-394 -709h-16l394 709h16zM302 539q0 -79 -34 -123t-94 -44t-93.5 43.5t-33.5 123.5q0 79 34 123t93 44q61 0 94.5 -43.5t33.5 -123.5zM276 540
q0 77 -26 115t-76 38q-47 0 -74 -39.5t-27 -113.5q0 -75 26.5 -114.5t74.5 -39.5q47 0 74.5 40t27.5 114zM659 164q0 77 -26 115t-76 38q-47 0 -74 -39.5t-27 -113.5q0 -75 26.5 -114.5t74.5 -39.5q47 0 74.5 40t27.5 114z" />
    <glyph glyph-name="ampersand" unicode="&#x26;" horiz-adv-x="608" 
d="M596 16h-30l-95 114q-58 -68 -109.5 -97.5t-109.5 -29.5q-86 0 -140 52t-54 131q0 61 44 114q40 48 141 114l-38 49q-26 33 -37 55q-16 31 -16 66q0 48 39 80t101 32q55 0 90 -33t35 -84q0 -47 -33 -86q-29 -34 -106 -84l199 -246q55 65 90 120l15 -8q-40 -64 -95 -131z
M392 580q0 42 -30 70t-74 28q-48 0 -78 -27t-30 -71q0 -43 36 -93l49 -66l45 31q82 57 82 128zM459 146l-206 251l-44 -32q-63 -45 -87 -75q-34 -43 -34 -101q0 -69 48.5 -117.5t118.5 -48.5q47 0 95.5 29t108.5 94z" />
    <glyph glyph-name="quotesingle" unicode="'" horiz-adv-x="102" 
d="M50 700h34v-270h-34v270z" />
    <glyph glyph-name="parenleft" unicode="(" horiz-adv-x="241" 
d="M229 -186l-17 -10q-106 206 -106 467q0 255 106 455l17 -9q-99 -212 -99 -448q0 -130 24 -242.5t75 -212.5z" />
    <glyph glyph-name="parenright" unicode=")" horiz-adv-x="241" 
d="M167 271q0 -261 -106 -467l-17 10q100 197 100 455q0 119 -24.5 229.5t-75.5 218.5l17 9q106 -200 106 -455z" />
    <glyph glyph-name="asterisk" unicode="*" horiz-adv-x="385" 
d="M350 616l-117 -65l116 -62l-15 -26l-115 72l4 -138h-30l6 137l-118 -71l-15 26l120 62l-120 65l15 26l117 -73l-5 140h31l-4 -140l116 72z" />
    <glyph glyph-name="plus" unicode="+" horiz-adv-x="801" 
d="M706 286h-277v-283h-24v283h-278v24h278v283h24v-283h277v-24z" />
    <glyph glyph-name="comma" unicode="," horiz-adv-x="256" 
d="M207 86l-114 -221l-13 6l87 232z" />
    <glyph glyph-name="hyphen" unicode="-" horiz-adv-x="315" 
d="M264 200h-181v31h181v-31z" />
    <glyph glyph-name="period" unicode="." horiz-adv-x="256" 
d="M178 41q0 -14 -10 -24t-24 -10t-24 10t-10 24t10 24t24 10q15 0 24.5 -9.5t9.5 -24.5z" />
    <glyph glyph-name="slash" unicode="/" horiz-adv-x="371" 
d="M379 715l-337 -792h-18l337 792h18z" />
    <glyph glyph-name="zero" unicode="0" horiz-adv-x="544" 
d="M511 351q0 -169 -58.5 -261.5t-165.5 -92.5q-102 0 -161.5 93.5t-59.5 260.5t59 261t164 94t163.5 -92.5t58.5 -262.5zM478 352q0 161 -49.5 244.5t-141.5 83.5q-86 0 -137.5 -88t-51.5 -242q0 -153 51.5 -240t139.5 -87q91 0 140 83.5t49 245.5z" />
    <glyph glyph-name="one" unicode="1" horiz-adv-x="544" 
d="M313 16h-31v650h-118l14 26h135v-676z" />
    <glyph glyph-name="two" unicode="2" horiz-adv-x="544" 
d="M481 523q0 83 -56 133t-149 50q-97 0 -153.5 -54.5t-56.5 -149.5v9h32v-13q0 85 46.5 133.5t124.5 48.5t126 -45t48 -116q0 -50 -30 -105q-24 -45 -84 -114q-37 -43 -128 -142l-129 -142h406v24h-348l182 195q74 79 88 96q40 47 60.5 92.5t20.5 99.5z" />
    <glyph glyph-name="three" unicode="3" horiz-adv-x="544" 
d="M485 190q0 -88 -55.5 -140.5t-155.5 -52.5q-90 0 -143.5 43t-64.5 124h37q18 -141 171 -141q84 0 129.5 45.5t45.5 121.5q0 78 -45.5 123.5t-126.5 45.5h-16v28h20q75 0 116 39t41 105q0 68 -42 109t-114 41q-60 0 -99 -30t-50 -85h-37q12 65 61.5 102.5t124.5 37.5
q85 0 138 -46t53 -123q0 -59 -35 -97q-39 -42 -126 -68q93 -30 133 -74.5t40 -107.5z" />
    <glyph glyph-name="four" unicode="4" horiz-adv-x="544" 
d="M474 197h-73v-181h-33v181h-307l340 485v-461h73v-24zM370 610l-274 -389h272z" />
    <glyph glyph-name="five" unicode="5" horiz-adv-x="544" 
d="M487 230q0 -105 -62.5 -169.5t-163.5 -64.5q-135 0 -200 116l25 19q64 -108 178 -108q85 0 136.5 54.5t51.5 148.5q0 87 -52 138t-141 51q-97 0 -155 -52h8l83 329h260v-23h-241l-66 -265q47 19 75.5 27t53.5 8q93 0 151.5 -57.5t58.5 -151.5z" />
    <glyph glyph-name="six" unicode="6" horiz-adv-x="544" 
d="M497 209q0 -94 -61.5 -153.5t-157.5 -59.5q-93 0 -147.5 55.5t-54.5 147.5q0 56 22.5 112t114.5 183l158 221l25 -16l-218 -296l22 -24q52 34 105 34q83 0 137.5 -56.5t54.5 -147.5zM462 212q0 77 -47.5 127.5t-126.5 50.5q-80 0 -128.5 -51.5t-48.5 -135.5
q0 -83 48.5 -132.5t127.5 -49.5q78 0 126.5 52.5t48.5 138.5z" />
    <glyph glyph-name="seven" unicode="7" horiz-adv-x="544" 
d="M504 692l-342 -693l-32 17l331 653h-355v23h398z" />
    <glyph glyph-name="eight" unicode="8" horiz-adv-x="544" 
d="M499 194q0 -92 -55.5 -144.5t-154.5 -52.5q-100 0 -156 53t-56 142q0 71 40 116q45 50 144 75q-85 26 -123 69q-34 38 -34 95q0 70 50.5 114.5t134.5 44.5q85 0 134.5 -45.5t49.5 -121.5q0 -53 -33.5 -89.5t-117.5 -67.5q93 -24 137 -74q40 -46 40 -114zM439 537
q0 66 -41 105t-109 39t-108.5 -38.5t-40.5 -105.5q0 -64 39.5 -103t110.5 -39q70 0 109.5 38.5t39.5 103.5zM464 195q0 80 -47 127t-129 47t-128.5 -46.5t-46.5 -127.5q0 -79 45.5 -125.5t129.5 -46.5q83 0 129.5 46.5t46.5 125.5z" />
    <glyph glyph-name="nine" unicode="9" horiz-adv-x="544" 
d="M498 503q0 -68 -38 -142q-28 -55 -100 -153l-162 -220l-25 15l222 296l-22 24q-50 -33 -104 -33q-84 0 -138.5 55.5t-54.5 147.5q0 94 61.5 153.5t157.5 59.5q93 0 148 -55t55 -148zM463 499q0 84 -48.5 133.5t-127.5 49.5q-78 0 -126.5 -52.5t-48.5 -138.5
q0 -78 47 -128.5t126 -50.5q80 0 129 52t49 135z" />
    <glyph glyph-name="colon" unicode=":" horiz-adv-x="278" 
d="M189 371q0 -14 -10 -24t-24 -10t-24 10t-10 24t10 24t24 10q15 0 24.5 -9.5t9.5 -24.5zM189 41q0 -14 -10 -24t-24 -10t-24 10t-10 24t10 24t24 10q15 0 24.5 -9.5t9.5 -24.5z" />
    <glyph glyph-name="semicolon" unicode=";" horiz-adv-x="278" 
d="M231 371q0 -14 -10 -24t-24 -10t-24 10t-10 24t10 24t24 10q15 0 24.5 -9.5t9.5 -24.5zM211 86l-114 -221l-13 6l87 232z" />
    <glyph glyph-name="less" unicode="&#x3c;" horiz-adv-x="801" 
d="M701 58l-569 232v16l569 232v-27l-527 -213l527 -213v-27z" />
    <glyph glyph-name="equal" unicode="=" horiz-adv-x="801" 
d="M706 373h-579v24h579v-24zM706 200h-579v24h579v-24z" />
    <glyph glyph-name="greater" unicode="&#x3e;" horiz-adv-x="801" 
d="M701 290l-569 -232v27l527 214l-527 212v27l569 -232v-16z" />
    <glyph glyph-name="question" unicode="?" horiz-adv-x="482" 
d="M408 569q0 -63 -37 -103q-24 -26 -101 -74q-66 -42 -83 -59q-30 -30 -30 -73t26.5 -68.5t71.5 -25.5q50 0 78.5 27.5t28.5 75.5v-7h22v4q0 -120 -136 -120q-53 0 -87 32t-34 83q0 50 36 87q22 23 91 66t92 67q33 35 33 84q0 54 -32 87t-89 33q-63 0 -97.5 -37.5
t-34.5 -109.5v13h-26q0 76 43 120t118 44q67 0 107 -39t40 -107zM280 31q0 -14 -10 -24t-24 -10t-24 10t-10 24t10 24t24 10q15 0 24.5 -9.5t9.5 -24.5z" />
    <glyph glyph-name="at" unicode="@" horiz-adv-x="968" 
d="M935 380q0 -82 -30 -148t-87 -112q-66 -52 -145 -52q-88 0 -88 65l2 22h-11q-47 -87 -137 -87q-147 0 -147 153q0 110 64 185t155 75q46 0 76.5 -21.5t48.5 -71.5l34 73h27l-65 -262q-10 -40 -10 -55q0 -51 63 -51q50 0 103 39q48 35 79.5 102t31.5 141
q0 135 -98.5 218.5t-261.5 83.5q-166 0 -282 -96q-153 -125 -153 -332q0 -162 109 -259t294 -97q78 0 155.5 23t145.5 69l9 -14q-140 -101 -308 -101q-182 0 -299 88q-145 112 -145 297q0 158 95 275q143 172 384 172q77 0 147.5 -21.5t118.5 -58.5q125 -99 125 -242z
M632 352q-22 105 -120 105q-75 0 -128 -69t-53 -170q0 -60 29 -93t83 -33q56 0 99.5 36.5t58.5 97.5z" />
    <glyph glyph-name="A" unicode="A" horiz-adv-x="565" 
d="M582 16h-36l-91 242h-314l-95 -242h-31l290 685zM447 282l-145 371l-152 -371h297z" />
    <glyph glyph-name="B" unicode="B" horiz-adv-x="521" 
d="M484 210q0 -101 -68 -154q-35 -27 -87 -35q-33 -5 -115 -5h-109v683h108q61 0 74 -1q58 -5 95 -31q67 -50 67 -138q0 -56 -25 -103q-28 -52 -72 -63q60 -9 96 -50t36 -103zM414 524q0 86 -40.5 118t-138.5 32h-97v-293h97q94 0 134 29q45 33 45 114zM446 197
q0 48 -17.5 83.5t-47.5 54.5q-22 13 -51 17.5t-68 4.5h-124v-317h112q54 0 84.5 5t55 24t40.5 54t16 74z" />
    <glyph glyph-name="C" unicode="C" horiz-adv-x="683" 
d="M648 648l-1 -32q-96 74 -210 74q-147 0 -237.5 -92.5t-90.5 -240.5q0 -149 90.5 -240.5t228.5 -91.5q117 0 215 67l-1 -35q-49 -30 -103 -45t-108 -15q-156 0 -258 100t-102 260q0 156 103 257t257 101q128 0 217 -67z" />
    <glyph glyph-name="D" unicode="D" horiz-adv-x="665" 
d="M625 357q0 -191 -115 -278q-53 -41 -128 -54q-51 -9 -152 -9h-125v683h95q117 0 160 -5q76 -9 126 -40q66 -40 102.5 -117.5t36.5 -179.5zM588 358q0 76 -20 136.5t-57 102.5q-47 52 -118 68q-52 12 -162 12h-93v-637h112q88 0 126 6q57 9 97 38q54 39 84.5 110t30.5 164
z" />
    <glyph glyph-name="E" unicode="E" horiz-adv-x="481" 
d="M427 16h-322v683h322v-29h-289v-256h289v-29h-289v-340h289v-29z" />
    <glyph glyph-name="F" unicode="F" horiz-adv-x="469" 
d="M427 670h-289v-256h278v-29h-278v-369h-33v683h322v-29z" />
    <glyph glyph-name="G" unicode="G" horiz-adv-x="785" 
d="M753 337v6q0 -162 -89 -254t-245 -92t-252 99t-96 260q0 156 96.5 257.5t248.5 101.5q100 0 172 -33.5t113 -101.5l-23 -21q-93 129 -253 129q-140 0 -228 -95t-88 -244q0 -139 89.5 -231.5t226.5 -92.5q128 0 208.5 78.5t80.5 209.5h-247v24h286z" />
    <glyph glyph-name="H" unicode="H" horiz-adv-x="665" 
d="M592 16h-33v369h-421v-369h-33v683h33v-290h421v290h33v-683z" />
    <glyph glyph-name="I" unicode="I" horiz-adv-x="211" 
d="M138 16h-33v683h33v-683z" />
    <glyph glyph-name="J" unicode="J" horiz-adv-x="341" 
d="M277 154q0 -157 -136 -157q-76 0 -117 55l23 21q42 -46 92 -46q58 0 81.5 41t23.5 128v503h33v-545z" />
    <glyph glyph-name="K" unicode="K" horiz-adv-x="542" 
d="M540 16h-49l-353 339v-339h-33v683h33v-309l346 309h40l-367 -324z" />
    <glyph glyph-name="L" unicode="L" horiz-adv-x="381" 
d="M383 16h-278v683h33v-654h245v-29z" />
    <glyph glyph-name="M" unicode="M" horiz-adv-x="804" 
d="M772 16h-34l-58 596l-265 -600l-258 606l-62 -602h-34l87 669l266 -616l275 616z" />
    <glyph glyph-name="N" unicode="N" horiz-adv-x="713" 
d="M640 22l-502 599v-605h-33v686l502 -598v595h33v-677z" />
    <glyph glyph-name="O" unicode="O" horiz-adv-x="843" 
d="M804 356q0 -150 -107.5 -254.5t-259.5 -104.5q-74 0 -140.5 27t-118.5 78q-107 105 -107 254q0 152 106 255.5t260 103.5q155 0 260 -103q53 -51 80 -116.5t27 -139.5zM767 356q0 140 -96 237t-234 97q-137 0 -233 -97t-96 -237q0 -139 95 -236t234 -97q138 0 234 97
t96 236z" />
    <glyph glyph-name="P" unicode="P" 
d="M451 518q0 -96 -55 -138.5t-167 -42.5h-91v-321h-33v683h123q61 0 94.5 -5.5t64.5 -27.5q64 -46 64 -148zM414 513q0 43 -14 75.5t-39.5 53t-61 26.5t-101.5 6h-60v-312h60q115 0 160 26q56 32 56 125z" />
    <glyph glyph-name="Q" unicode="Q" horiz-adv-x="843" 
d="M804 357q0 -76 -28.5 -140t-91.5 -124l108 -127h-38l-91 106q-57 -37 -114 -54t-118 -17q-148 0 -253 102q-53 51 -80 116t-27 138q0 149 107 254q51 50 118.5 77t140.5 27q153 0 260 -104t107 -254zM767 357q0 139 -96 236t-234 97q-137 0 -232.5 -96.5t-95.5 -236.5
q0 -139 95.5 -235.5t234.5 -96.5q116 0 202 74l-154 178h38l141 -163q53 59 77 118t24 125z" />
    <glyph glyph-name="R" unicode="R" horiz-adv-x="496" 
d="M490 16h-38l-251 341h-63v-341h-33v683h115q216 0 216 -179q0 -79 -50 -121t-153 -42zM398 522q0 84 -41 118t-138 34h-81v-296h81q96 0 135 29q44 33 44 115z" />
    <glyph glyph-name="S" unicode="S" horiz-adv-x="466" 
d="M426 190q0 -89 -52 -141t-141 -52q-124 0 -178 116l26 14q19 -50 60 -77t95 -27q76 0 118 44t42 123q0 66 -38 107q-29 32 -107 72q-92 49 -125 81q-45 44 -45 110q0 68 47 112t122 44q91 0 136 -69l-23 -14q-37 57 -117 57q-61 0 -96 -35t-35 -96q0 -72 70 -118
q7 -4 96 -54q79 -42 109 -80q36 -45 36 -117z" />
    <glyph glyph-name="T" unicode="T" horiz-adv-x="465" 
d="M462 670h-197v-654h-33v654h-197v29h427v-29z" />
    <glyph glyph-name="U" unicode="U" horiz-adv-x="660" 
d="M590 269q0 -137 -60.5 -204.5t-183.5 -67.5q-244 0 -244 272v430h33v-451q0 -114 51.5 -169.5t159.5 -55.5q211 0 211 225v451h33v-430z" />
    <glyph glyph-name="V" unicode="V" horiz-adv-x="519" 
d="M536 699l-265 -673l-257 673h41l217 -612l228 612h36z" />
    <glyph glyph-name="W" unicode="W" horiz-adv-x="866" 
d="M864 699l-217 -667l-198 599l-190 -599l-225 667h34l191 -607l190 600l199 -595l183 602h33z" />
    <glyph glyph-name="X" unicode="X" horiz-adv-x="452" 
d="M468 16h-35l-190 334l-193 -334h-34l209 361l-188 322h36l170 -300l172 300h33l-187 -320z" />
    <glyph glyph-name="Y" unicode="Y" horiz-adv-x="514" 
d="M513 699l-222 -365v-318h-33v318l-224 365h40l201 -343l202 343h36z" />
    <glyph glyph-name="Z" unicode="Z" horiz-adv-x="528" 
d="M519 699l-423 -655h393v-28h-448l425 656h-376v27h429z" />
    <glyph glyph-name="bracketleft" unicode="[" horiz-adv-x="241" 
d="M234 -185h-110v900h110v-16h-85v-868h85v-16z" />
    <glyph glyph-name="backslash" unicode="\" horiz-adv-x="371" 
d="M379 -77h-18l-337 792h18z" />
    <glyph glyph-name="bracketright" unicode="]" horiz-adv-x="241" 
d="M149 -185h-110v16h86v868h-86v16h110v-900z" />
    <glyph glyph-name="asciicircum" unicode="^" horiz-adv-x="968" 
d="M755 456h-18l-236 235l-239 -235h-17l232 240h45z" />
    <glyph glyph-name="underscore" unicode="_" 
d="M497 -233h-494v24h494v-24z" />
    <glyph glyph-name="grave" unicode="`" 
d="M286 519h-10l-112 139h38z" />
    <glyph glyph-name="a" unicode="a" horiz-adv-x="509" 
d="M444 16h-28v109l-27 -42q-32 -44 -61 -63q-35 -23 -80 -23q-87 0 -139 59t-52 158q0 97 52 158t133 61q107 0 152 -86l24 -35l-2 105h28v-401zM417 223q0 88 -43.5 137.5t-118.5 49.5q-73 0 -118 -52.5t-45 -145.5t42 -142t120 -49q73 0 118 53t45 149z" />
    <glyph glyph-name="b" unicode="b" horiz-adv-x="509" 
d="M482 214q0 -98 -52.5 -157.5t-138.5 -59.5q-91 0 -144 86l-23 46v-113h-28v725h28v-419l20 31q50 80 153 80q82 0 133.5 -60.5t51.5 -158.5zM447 212q0 93 -44.5 145.5t-118.5 52.5t-117.5 -49.5t-43.5 -137.5q0 -95 45 -148.5t118 -53.5q77 0 119 49t42 142z" />
    <glyph glyph-name="c" unicode="c" horiz-adv-x="424" 
d="M409 25q-60 -30 -138 -30q-92 0 -151 61t-59 155q0 99 61.5 160.5t160.5 61.5q70 0 119 -23l-1 -28q-56 30 -119 30q-89 0 -140.5 -55.5t-51.5 -149.5q0 -82 53.5 -136.5t138.5 -54.5q65 0 127 36v-27z" />
    <glyph glyph-name="d" unicode="d" horiz-adv-x="509" 
d="M446 16h-28v99l-27 -35q-33 -44 -64 -63.5t-77 -19.5q-87 0 -139 59t-52 158q0 97 52 158t133 61q48 0 84 -20.5t64 -57.5l26 -29v415h28v-725zM418 223q0 88 -43.5 137.5t-117.5 49.5q-73 0 -118 -52.5t-45 -145.5t42 -142t120 -49q73 0 117.5 53t44.5 149z" />
    <glyph glyph-name="e" unicode="e" horiz-adv-x="465" 
d="M436 230l-344 1q0 -102 45 -157t119 -55q98 0 150 98l28 -15q-60 -105 -178 -105q-89 0 -143 59.5t-54 155.5q0 101 54 161t141 60q82 0 132 -55t50 -148zM398 250q0 77 -41 117t-111 40q-60 0 -102.5 -41.5t-49.5 -115.5h304z" />
    <glyph glyph-name="f" unicode="f" horiz-adv-x="227" 
d="M247 745l-4 -20q-17 6 -31 6q-41 0 -57.5 -31t-16.5 -103v-180h95v-19h-95v-382h-28v382h-81v19h81v141q0 87 5 115q14 77 93 77q7 0 13.5 -0.5t25.5 -4.5z" />
    <glyph glyph-name="g" unicode="g" horiz-adv-x="509" 
d="M445 72q0 -145 -19 -187q-39 -87 -171 -87q-145 0 -173 102l42 -1q25 -79 136 -79q43 0 79.5 17t53.5 43q13 21 18.5 47.5t5.5 57.5v133l-25 -36q-41 -43 -65 -59q-39 -26 -83 -26q-82 0 -133 58.5t-51 159.5q0 98 51 158t136 60q44 0 82 -24q33 -21 63 -61l25 -34v103
h28v-345zM417 219q0 92 -43.5 141.5t-119.5 49.5q-75 0 -118 -52t-43 -144t42 -142.5t113 -50.5q74 0 121.5 52.5t47.5 145.5z" />
    <glyph glyph-name="h" unicode="h" horiz-adv-x="489" 
d="M430 16h-28v251q0 144 -128 144q-150 0 -150 -185v-210h-28v725h28v-375h18q21 35 60 51t88 16q66 0 103 -36t37 -103v-278z" />
    <glyph glyph-name="i" unicode="i" horiz-adv-x="198" 
d="M146 602q0 -13 -8.5 -21.5t-22.5 -8.5q-13 0 -21.5 8.5t-8.5 21.5t8.5 21.5t21.5 8.5q12 0 21.5 -8.5t9.5 -21.5zM129 16h-28v401h28v-401z" />
    <glyph glyph-name="j" unicode="j" horiz-adv-x="198" 
d="M146 602q0 -13 -8.5 -21.5t-22.5 -8.5q-13 0 -21.5 8.5t-8.5 21.5t8.5 21.5t21.5 8.5q12 0 21.5 -8.5t9.5 -21.5zM129 -202h-28v619h28v-619z" />
    <glyph glyph-name="k" unicode="k" horiz-adv-x="426" 
d="M416 16h-36l-256 246v-246h-28v725h28v-536l239 212h33l-212 -177z" />
    <glyph glyph-name="l" unicode="l" horiz-adv-x="198" 
d="M130 16h-28v725h28v-725z" />
    <glyph glyph-name="m" unicode="m" horiz-adv-x="757" 
d="M693 16h-28v253q0 144 -120 144q-136 0 -136 -185v-212h-28v253q0 74 -28 109t-90 35q-139 0 -139 -185v-212h-28v401h28v-52l16 1q18 35 54.5 51t83.5 16q44 0 74.5 -23t55.5 -81q25 58 68 83q35 21 85 21q62 0 97 -37t35 -103v-277z" />
    <glyph glyph-name="n" unicode="n" horiz-adv-x="489" 
d="M430 16h-28v251q0 144 -128 144q-150 0 -150 -185v-210h-28v401h25v-105q26 71 76 100q37 21 93 21q66 0 103 -36t37 -103v-278z" />
    <glyph glyph-name="o" unicode="o" horiz-adv-x="526" 
d="M498 216q0 -91 -65 -155t-156 -64q-90 0 -153.5 63.5t-63.5 155.5q0 91 63 154t154 63q93 0 157 -63t64 -154zM465 215q0 82 -54 138t-132 56q-79 0 -132.5 -55.5t-53.5 -138.5q0 -82 54 -138t132 -56q77 0 131.5 55.5t54.5 138.5z" />
    <glyph glyph-name="p" unicode="p" horiz-adv-x="509" 
d="M480 215q0 -101 -50.5 -159.5t-133.5 -58.5q-51 0 -85.5 19t-56.5 63l-30 1v-282h-28v619h28v-65l18 1q20 39 62 59.5t89 20.5q85 0 136 -60t51 -158zM447 214q0 92 -43 144t-117 52q-75 0 -119 -50t-44 -141q0 -93 49 -147q46 -51 120 -51q72 0 113 50t41 143z" />
    <glyph glyph-name="q" unicode="q" horiz-adv-x="509" 
d="M445 -202h-28v282l-30 -1q-21 -43 -57 -62.5t-86 -19.5q-82 0 -133 58.5t-51 159.5q0 98 51 158t136 60q47 0 83 -19.5t57 -60.5l30 -1v65h28v-619zM417 219q0 92 -43.5 141.5t-119.5 49.5q-75 0 -118 -52t-43 -144t42 -142.5t113 -50.5q74 0 121.5 52.5t47.5 145.5z" />
    <glyph glyph-name="r" unicode="r" horiz-adv-x="283" 
d="M311 429l-9 -27q-7 2 -15.5 3t-15.5 1q-58 0 -101 -52q-46 -56 -46 -141v-197h-28v401h28v-129q26 74 71 112q40 33 85 33h18q9 -3 13 -4z" />
    <glyph glyph-name="s" unicode="s" horiz-adv-x="350" 
d="M324 112q0 -52 -37.5 -83.5t-103.5 -31.5q-46 0 -80 19t-51 54l29 17q36 -66 114 -66q46 0 72.5 23.5t26.5 63.5q0 52 -56 80q-5 2 -76 32q-48 20 -71 44t-23 60q0 48 34 79t90 31q89 0 123 -65l-26 -15q-30 56 -101 56q-38 0 -63 -23t-25 -57t27 -56t86.5 -42t81.5 -41
q29 -27 29 -79z" />
    <glyph glyph-name="t" unicode="t" horiz-adv-x="216" 
d="M223 398h-86v-382h-28v382h-80v19h80v178h28v-178h86v-19z" />
    <glyph glyph-name="u" unicode="u" horiz-adv-x="495" 
d="M431 186q0 -189 -167 -189q-168 0 -168 189v231h28v-200q0 -104 30.5 -150t108.5 -46t109 46t31 150v200h28v-231z" />
    <glyph glyph-name="v" unicode="v" horiz-adv-x="395" 
d="M388 417l-174 -396l-174 396h30l145 -355l142 355h31z" />
    <glyph glyph-name="w" unicode="w" horiz-adv-x="616" 
d="M613 417l-150 -392l-137 335l-140 -336l-151 393h29l124 -340l136 336l137 -336l123 340h29z" />
    <glyph glyph-name="x" unicode="x" horiz-adv-x="362" 
d="M359 16h-35l-129 187l-128 -187h-36l151 209l-136 192h36l115 -171l113 171h34l-134 -192z" />
    <glyph glyph-name="y" unicode="y" horiz-adv-x="371" 
d="M365 417l-213 -619h-29l71 206l-150 413h30l136 -370l124 370h31z" />
    <glyph glyph-name="z" unicode="z" horiz-adv-x="349" 
d="M348 16h-308l242 379h-238v22h283l-240 -380h261v-21z" />
    <glyph glyph-name="braceleft" unicode="{" 
d="M404 -192h-11q-91 0 -119.5 36t-28.5 137v117q0 82 -30.5 116t-106.5 34l-11 -1v24l13 -2q73 0 104 35t31 116v117q0 102 26 135q30 38 122 38h11v-22h-8q-74 0 -98 -29t-24 -110v-118q0 -77 -19 -109q-25 -42 -99 -60q75 -23 99 -65q19 -33 19 -110v-118
q0 -81 23.5 -110t97.5 -29h9v-22z" />
    <glyph glyph-name="bar" unicode="|" 
d="M263 -227h-26v982h26v-982z" />
    <glyph glyph-name="braceright" unicode="}" 
d="M404 247l-12 1q-76 0 -106 -34t-30 -116v-117q0 -101 -27 -135q-30 -38 -122 -38h-10v22h8q74 0 98 29t24 110v118q0 76 17 109q22 42 84 60v10q-61 15 -83 56q-18 34 -18 109v118q0 80 -23 108q-26 31 -100 31h-7v22h10q92 0 122 -38q27 -34 27 -135v-117
q0 -82 30.5 -116.5t105.5 -34.5l12 1v-23z" />
    <glyph glyph-name="asciitilde" unicode="~" horiz-adv-x="801" 
d="M743 318q-51 -35 -96 -52.5t-89 -17.5q-34 0 -73 11q-18 5 -66 23q-61 21 -71 24q-39 11 -72 11q-41 0 -86.5 -18.5t-97.5 -54.5v35q50 33 95.5 50.5t88.5 17.5q35 0 72 -10q15 -4 67 -23q68 -24 92.5 -30t50.5 -6q42 0 85.5 18t99.5 57v-35z" />
    <glyph glyph-name="quotesinglbase" unicode="&#x201a;" horiz-adv-x="256" 
d="M207 86l-114 -221l-13 6l87 232z" />
    <glyph glyph-name="florin" unicode="&#x192;" horiz-adv-x="544" 
d="M459 699l-5 -22q-21 6 -39 6q-49 0 -70 -37q-17 -30 -25 -110l-11 -103h96l-1 -14h-96l-45 -405q-14 -123 -35 -164q-27 -54 -92 -54l-26 3l7 25l19 -1q46 0 67 51q18 44 31 166l42 379h-80l1 14h80l12 103q10 91 36.5 130.5t89.5 39.5q23 0 44 -7z" />
    <glyph glyph-name="quotedblbase" unicode="&#x201e;" horiz-adv-x="396" 
d="M355 83l-113 -219l-13 5l84 233zM197 83l-113 -219l-12 5l83 233z" />
    <glyph glyph-name="ellipsis" unicode="&#x2026;" horiz-adv-x="968" 
d="M868 41q0 -14 -10 -24t-24 -10t-24 10t-10 24t10 24t24 10q15 0 24.5 -9.5t9.5 -24.5zM534 41q0 -14 -10 -24t-24 -10t-24 10t-10 24t10 24t24 10q15 0 24.5 -9.5t9.5 -24.5zM201 41q0 -14 -10 -24t-24 -10t-24 10t-10 24t10 24t24 10q15 0 24.5 -9.5t9.5 -24.5z" />
    <glyph glyph-name="dagger" unicode="&#x2020;" horiz-adv-x="477" 
d="M445 394h-176v-596h-28v596h-176v24h176v281h28v-281h176v-24z" />
    <glyph glyph-name="daggerdbl" unicode="&#x2021;" horiz-adv-x="477" 
d="M445 35h-177v-237h-28v237h-175v23h175v384h-175v23h175v234h28v-234h177v-23h-177v-384h177v-23z" />
    <glyph glyph-name="circumflex" unicode="&#x2c6;" 
d="M360 519h-8l-101 133l-104 -133h-8l84 139h53z" />
    <glyph glyph-name="perthousand" unicode="&#x2030;" horiz-adv-x="1044" 
d="M1030 163q0 -79 -33 -122.5t-94 -43.5q-60 0 -94 43.5t-34 122.5t34 123t94 44t93.5 -43.5t33.5 -123.5zM684 163q0 -78 -34 -122t-94 -44t-93.5 43.5t-33.5 122.5t34 123t93 44q61 0 94.5 -43.5t33.5 -123.5zM568 706l-394 -709h-15l393 709h16zM301 539q0 -79 -34 -123
t-94 -44t-93.5 43.5t-33.5 123.5q0 79 34 123t93 44q61 0 94.5 -43.5t33.5 -123.5zM1004 164q0 153 -101 153q-47 0 -74.5 -39t-27.5 -114q0 -76 27 -115t75 -39t74.5 39.5t26.5 114.5zM658 164q0 77 -26 115t-76 38q-47 0 -74 -39.5t-27 -113.5q0 -75 26.5 -114.5
t74.5 -39.5q47 0 74.5 40t27.5 114zM275 540q0 77 -26 115t-76 38q-47 0 -74 -39.5t-27 -113.5q0 -75 26.5 -114.5t74.5 -39.5q47 0 74.5 40t27.5 114z" />
    <glyph glyph-name="Scaron" unicode="&#x160;" horiz-adv-x="466" 
d="M426 190q0 -89 -52 -141t-141 -52q-124 0 -178 116l26 14q19 -50 60 -77t95 -27q76 0 118 44t42 123q0 66 -38 107q-29 32 -107 72q-92 49 -125 81q-45 44 -45 110q0 68 47 112t122 44q91 0 136 -69l-23 -14q-37 57 -117 57q-61 0 -96 -35t-35 -96q0 -72 70 -118
q7 -4 96 -54q79 -42 109 -80q36 -45 36 -117zM359 940l-84 -139h-53l-84 139h8l104 -132l101 132h8z" />
    <glyph glyph-name="guilsinglleft" unicode="&#x2039;" horiz-adv-x="174" 
d="M163 55l-14 -8l-109 166l105 171l15 -9l-98 -163z" />
    <glyph glyph-name="OE" unicode="&#x152;" horiz-adv-x="1101" 
d="M1049 16h-309v136l-30 8q-44 -77 -119 -119t-168 -42q-120 0 -215 75q-65 51 -101 124.5t-36 159.5q0 73 26 137.5t76 115.5q103 105 256 105q97 0 169.5 -46.5t141.5 -160.5v190h309v-29h-281v-256h281v-29h-281v-340h281v-29zM738 357q0 147 -89.5 239.5t-227.5 92.5
q-107 0 -194 -68q-59 -47 -92 -116.5t-33 -147.5q0 -135 94 -235q43 -46 102.5 -71t122.5 -25q135 0 226 95t91 236z" />
    <glyph glyph-name="quoteleft" unicode="&#x2018;" horiz-adv-x="256" 
d="M208 706l-84 -232l-42 19l113 218z" />
    <glyph glyph-name="quoteright" unicode="&#x2019;" horiz-adv-x="256" 
d="M206 691l-113 -219l-13 5l84 232z" />
    <glyph glyph-name="quotedblleft" unicode="&#x201c;" horiz-adv-x="396" 
d="M357 706l-84 -232l-42 19l113 218zM199 706l-84 -232l-41 19l112 218z" />
    <glyph glyph-name="quotedblright" unicode="&#x201d;" horiz-adv-x="396" 
d="M355 691l-113 -219l-13 5l84 232zM197 691l-113 -219l-12 5l83 232z" />
    <glyph glyph-name="bullet" unicode="&#x2022;" horiz-adv-x="558" 
d="M423 372q0 -53 -38 -91t-91 -38t-90.5 37.5t-37.5 91.5q0 53 37.5 90.5t91.5 37.5q53 0 90.5 -37.5t37.5 -90.5z" />
    <glyph glyph-name="endash" unicode="&#x2013;" 
d="M494 202h-488v27h488v-27z" />
    <glyph glyph-name="emdash" unicode="&#x2014;" horiz-adv-x="968" 
d="M994 202h-988v27h988v-27z" />
    <glyph glyph-name="tilde" unicode="&#x2dc;" 
d="M370 616q-24 -58 -75 -58q-7 0 -15 1.5t-12 2.5l-39 13q-14 5 -33 5q-34 0 -54 -30h-12q20 55 75 55l24 -3l38 -13q18 -6 35 -6q39 0 57 33h11z" />
    <glyph glyph-name="trademark" unicode="&#x2122;" horiz-adv-x="801" 
d="M139 709h200v-20h-85v-237h-28v237h-87v20zM404 709h43l88 -222l82 222h42v-257h-23v239l-90 -239h-22l-96 239v-239h-24v257z" />
    <glyph glyph-name="scaron" unicode="&#x161;" horiz-adv-x="350" 
d="M324 112q0 -52 -37.5 -83.5t-103.5 -31.5q-46 0 -80 19t-51 54l29 17q36 -66 114 -66q46 0 72.5 23.5t26.5 63.5q0 52 -56 80q-5 2 -76 32q-48 20 -71 44t-23 60q0 48 34 79t90 31q89 0 123 -65l-26 -15q-30 56 -101 56q-38 0 -63 -23t-25 -57t27 -56t86.5 -42t81.5 -41
q29 -27 29 -79zM301 658l-84 -139h-53l-84 139h8l104 -132l101 132h8z" />
    <glyph glyph-name="guilsinglright" unicode="&#x203a;" horiz-adv-x="174" 
d="M166 213l-110 -166l-13 8l102 158l-100 162l16 9z" />
    <glyph glyph-name="oe" unicode="&#x153;" horiz-adv-x="867" 
d="M838 228v4h-344v-19q0 -87 44.5 -139.5t114.5 -52.5q102 0 154 97l28 -15q-63 -106 -175 -106q-65 0 -109 33q-48 36 -71 109q-38 -75 -87.5 -108t-114.5 -33q-93 0 -155 63t-62 155q0 90 63.5 153.5t150.5 63.5q68 0 116.5 -31t87.5 -105q25 70 70 103.5t105 33.5
q83 0 133.5 -55.5t50.5 -150.5zM800 250q0 77 -41.5 117.5t-110.5 40.5q-62 0 -106.5 -42.5t-44.5 -115.5h303zM466 215q0 83 -54 139t-132 56t-132 -56t-54 -139q0 -82 54 -138t132 -56q77 0 131.5 55.5t54.5 138.5z" />
    <glyph glyph-name="Ydieresis" unicode="&#x178;" horiz-adv-x="514" 
d="M513 699l-222 -365v-318h-33v318l-224 365h40l201 -343l202 343h36zM390 862q0 -31 -31 -31q-14 0 -23 8t-9 23q0 13 9.5 22.5t22.5 9.5t22 -9t9 -23zM219 862q0 -31 -32 -31q-31 0 -31 31q0 12 9 22t22 10t22.5 -9.5t9.5 -22.5z" />
    <glyph glyph-name="nonbreakingspace" unicode="&#xa0;" 
 />
    <glyph glyph-name="exclamdown" unicode="&#xa1;" horiz-adv-x="278" 
d="M189 681q0 -14 -10 -24t-24 -10t-24 10t-10 24t10 24t24 10q15 0 24.5 -9.5t9.5 -24.5zM169 -3h-28v552h28v-552z" />
    <glyph glyph-name="cent" unicode="&#xa2;" horiz-adv-x="544" 
d="M438 173q-29 -15 -59.5 -22t-78.5 -7v-100h-7v100q-99 0 -158 62t-59 153q0 90 57 150.5t160 72.5v77h7v-78q42 0 72 -5.5t66 -18.5v-28q-29 15 -64 23.5t-74 8.5v-399q51 6 81 13.5t57 21.5v-24zM293 165v394q-81 0 -133 -57t-52 -137q0 -83 47.5 -136t137.5 -64z" />
    <glyph glyph-name="sterling" unicode="&#xa3;" horiz-adv-x="544" 
d="M517 75q-47 -77 -121 -77q-38 0 -82 18q-101 41 -121 41q-59 0 -105 -55l-18 12q29 48 85 66q44 63 44 113q0 26 -6 52t-21 64h-107v12h100q-31 66 -45.5 113.5t-14.5 83.5q0 81 56.5 134.5t146.5 53.5q89 0 144 -48t55 -131l-30 -6q0 76 -46 118t-121 42q-79 0 -125 -45
t-46 -119q0 -69 54 -196h185v-12h-182q26 -71 26 -102q0 -32 -16 -61t-60 -67q70 0 146 -28t100 -28q62 0 107 64z" />
    <glyph glyph-name="currency" unicode="&#xa4;" horiz-adv-x="574" 
d="M557 204l-25 -25l-99 101q-59 -46 -130 -46q-70 0 -128 46l-101 -101l-24 25l101 100q-22 28 -34 61.5t-12 66.5q0 70 46 129l-101 99l24 25l101 -100q59 46 128 46t130 -46l99 100l25 -25l-100 -99q45 -60 45 -129t-45 -128zM469 433q0 68 -48 116t-117 48t-117 -48
t-48 -116t47.5 -116.5t117.5 -48.5q69 0 117 48t48 117z" />
    <glyph glyph-name="yen" unicode="&#xa5;" horiz-adv-x="545" 
d="M544 324h-239v-308h-30v308h-243v16h236l-68 111h-168v17h156l-138 225h34l205 -345l210 345h28l-137 -225h154v-17h-165l-68 -111h233v-16z" />
    <glyph glyph-name="brokenbar" unicode="&#xa6;" 
d="M263 338h-26v352h26v-352zM263 -162h-26v352h26v-352z" />
    <glyph glyph-name="section" unicode="&#xa7;" horiz-adv-x="477" 
d="M440 261q0 -62 -34 -101q-37 -43 -124 -70q75 -33 105 -68.5t30 -83.5q0 -62 -44 -103t-113 -41q-72 0 -115 40t-43 108l31 -3q10 -114 126 -114q59 0 91.5 31.5t32.5 88.5q0 53 -37 83q-26 21 -100 49q-95 34 -128 63q-46 41 -46 119q0 56 38.5 98.5t124.5 70.5
q-79 32 -108.5 64.5t-29.5 81.5q0 63 44.5 102.5t120.5 39.5q74 0 114 -38t40 -107v4h-35q-10 120 -123 120q-54 0 -89 -33t-35 -84q0 -59 41 -92q30 -24 110.5 -53t115.5 -66q39 -41 39 -106zM407 259q0 66 -41 108t-109 42q-63 0 -107 -43t-44 -107q0 -69 41 -110t110 -41
q62 0 106 44t44 107z" />
    <glyph glyph-name="dieresis" unicode="&#xa8;" 
d="M367 580q0 -31 -31 -31q-14 0 -23 8t-9 23q0 13 9.5 22.5t22.5 9.5t22 -9t9 -23zM196 580q0 -31 -32 -31q-31 0 -31 31q0 12 9 22t22 10t22.5 -9.5t9.5 -22.5z" />
    <glyph glyph-name="copyright" unicode="&#xa9;" horiz-adv-x="801" 
d="M769 351q0 -147 -101 -248q-52 -51 -116.5 -78t-135.5 -27q-69 0 -133 27t-115 77q-104 106 -104 249t103 247.5t249 104.5t249.5 -103.5t103.5 -248.5zM744 351q0 138 -95 232.5t-233 94.5q-137 0 -232 -96.5t-95 -230.5q0 -135 96.5 -231.5t230.5 -96.5t233 99
q47 45 71 103t24 126zM578 261q-7 -56 -53.5 -92.5t-111.5 -36.5q-81 0 -129.5 58.5t-48.5 159.5q0 103 50.5 161.5t134.5 58.5q61 0 103.5 -32t50.5 -85h-33q-24 91 -124 91q-68 0 -106.5 -50.5t-38.5 -143.5q0 -89 40 -140t105 -51q50 0 86 28t45 74h30z" />
    <glyph glyph-name="ordfeminine" unicode="&#xaa;" horiz-adv-x="374" 
d="M339 418h-33v52h-11q-29 -65 -109 -65q-67 0 -108 43t-41 114q0 70 41 114t104 44q83 0 113 -63h11v52h33v-291zM307 568q0 60 -31 93t-85 33q-53 0 -84.5 -35.5t-31.5 -98.5q0 -128 116 -128q53 0 84.5 35.5t31.5 100.5z" />
    <glyph glyph-name="guillemotleft" unicode="&#xab;" horiz-adv-x="350" 
d="M338 55l-14 -9l-109 167l106 171l15 -9l-99 -162zM163 55l-13 -9l-109 167l105 171l15 -9l-98 -162z" />
    <glyph glyph-name="logicalnot" unicode="&#xac;" horiz-adv-x="801" 
d="M706 175h-24v215h-555v24h579v-239z" />
    <glyph glyph-name="minus" unicode="&#xad;" horiz-adv-x="801" 
d="M693 295h-553v7h553v-7z" />
    <glyph glyph-name="registered" unicode="&#xae;" horiz-adv-x="801" 
d="M769 351q0 -146 -101 -247q-109 -106 -252 -106q-69 0 -133 27t-115 77q-104 106 -104 249t103 247.5t249 104.5t249.5 -103t103.5 -249zM744 351q0 137 -96 232t-232 95q-138 0 -232.5 -96t-94.5 -231q0 -134 97 -231t230 -97q135 0 234 99q94 91 94 229zM594 449
q0 -41 -27.5 -69.5t-74.5 -33.5l93 -194h-44l-90 186l-131 1v-187h-37v409h145q85 0 125.5 -26.5t40.5 -85.5zM550 452q0 80 -133 80h-97v-164h96q74 0 104 17t30 67z" />
    <glyph glyph-name="macron" unicode="&#xaf;" 
d="M360 562h-220v25h220v-25z" />
    <glyph glyph-name="degree" unicode="&#xb0;" horiz-adv-x="297" 
d="M292 574q0 -52 -37.5 -89.5t-90.5 -37.5t-90 37t-37 90q0 54 37 91t91 37q52 0 89.5 -37.5t37.5 -90.5zM275 574q0 46 -32 78t-78 32q-47 0 -78.5 -31.5t-31.5 -78.5q0 -46 32 -78t78 -32t78 32t32 78z" />
    <glyph glyph-name="plusminus" unicode="&#xb1;" horiz-adv-x="801" 
d="M706 361h-277v-175h-24v175h-278v24h278v174h24v-174h277v-24zM706 38h-579v24h579v-24z" />
    <glyph glyph-name="twosuperior" unicode="&#xb2;" horiz-adv-x="348" 
d="M322 595q0 -35 -18.5 -68.5t-93.5 -107.5l-114 -110h224v-22h-283l92 91q78 78 92 93q67 72 67 121q0 41 -30 67t-80 26t-79.5 -27.5t-29.5 -77.5h6v4h-36q0 57 38.5 90.5t104.5 33.5q64 0 102 -31t38 -82z" />
    <glyph glyph-name="threesuperior" unicode="&#xb3;" horiz-adv-x="348" 
d="M325 395q0 -54 -38.5 -86.5t-105.5 -32.5q-64 0 -100.5 27.5t-42.5 79.5h34q9 -85 109 -85q53 0 82 26t29 71t-29 71.5t-80 26.5l-15 -1v25h17q48 0 74 22t26 61q0 38 -27 62t-72 24q-81 0 -95 -69h-33q7 41 42 66t86 25q57 0 94 -29t37 -76q0 -35 -22 -59.5t-66 -35.5
v-6q96 -28 96 -107z" />
    <glyph glyph-name="acute" unicode="&#xb4;" 
d="M336 658l-112 -139h-10l84 139h38z" />
    <glyph glyph-name="mu" unicode="&#xb5;" horiz-adv-x="502" 
d="M479 503l-77 -365q-5 -22 -8.5 -40.5t-3.5 -28.5q0 -47 49 -47l-4 -17l-23 -3q-49 0 -49 46l2 20l-30 9q-41 -75 -138 -75q-46 0 -76 25q-35 29 -62 101l-67 -319h-26l147 694h26l-56 -269q-4 -20 -6 -36.5t-2 -35.5q0 -142 130 -142q66 0 116 55t74 164l58 264h26z" />
    <glyph glyph-name="paragraph" unicode="&#xb6;" 
d="M449 697h-63v-691h-22v691h-106v-691h-22v382q-86 0 -136 46t-50 118q0 73 51 118.5t136 45.5h212v-19z" />
    <glyph glyph-name="periodcentered" unicode="&#xb7;" horiz-adv-x="256" 
d="M94 351q0 21 14.5 35.5t35.5 14.5t35.5 -14.5t14.5 -35.5q0 -22 -14 -36t-36 -14q-21 0 -35.5 14.5t-14.5 35.5z" />
    <glyph glyph-name="periodcentered" unicode="&#x2219;" horiz-adv-x="256" 
d="M94 351q0 21 14.5 35.5t35.5 14.5t35.5 -14.5t14.5 -35.5q0 -22 -14 -36t-36 -14q-21 0 -35.5 14.5t-14.5 35.5z" />
    <glyph glyph-name="cedilla" unicode="&#xb8;" 
d="M367 -123q0 -77 -102 -77q-47 0 -115 17v28q23 -4 57.5 -9.5t49.5 -5.5q64 0 64 46q0 47 -70 47l-19 -1v75h24v-49h10q48 0 74.5 -19t26.5 -52z" />
    <glyph glyph-name="onesuperior" unicode="&#xb9;" horiz-adv-x="348" 
d="M214 284h-35v390h-83l17 29h101v-419z" />
    <glyph glyph-name="ordmasculine" unicode="&#xba;" horiz-adv-x="387" 
d="M380 563q0 -66 -51 -112t-121 -46q-69 0 -119 46t-50 112q0 65 49.5 111t119.5 46q71 0 121.5 -45.5t50.5 -111.5zM343 562q0 56 -38.5 93.5t-95.5 37.5t-95 -37t-38 -94q0 -56 38 -93t95 -37q56 0 95 37t39 93z" />
    <glyph glyph-name="guillemotright" unicode="&#xbb;" horiz-adv-x="350" 
d="M341 213l-108 -167l-15 10l102 157l-99 162l15 9zM166 213l-109 -167l-13 9l102 158l-100 162l15 9z" />
    <glyph glyph-name="onequarter" unicode="&#xbc;" horiz-adv-x="861" 
d="M833 107h-46v-101h-29v101h-197l226 287v-267h46v-20zM684 716l-439 -729h-37l440 729h36zM201 315h-27v364h-76l12 20h91v-384zM758 127v202l-160 -202h160z" />
    <glyph glyph-name="onehalf" unicode="&#xbd;" horiz-adv-x="861" 
d="M837 293q0 -43 -30 -83q-17 -23 -77 -81l-109 -104h214v-19h-269l87 85q76 74 88 86q64 67 64 114q0 39 -29 63t-77 24q-47 0 -75 -26t-28 -73h6v4h-35q0 53 37 84t100 31q59 0 96 -29t37 -76zM684 716l-439 -729h-37l440 729h36zM201 315h-27v364h-76l12 20h91v-384z
" />
    <glyph glyph-name="threequarters" unicode="&#xbe;" horiz-adv-x="861" 
d="M833 107h-46v-101h-29v101h-197l226 287v-267h46v-20zM684 716l-439 -729h-37l440 729h36zM310 415q0 -50 -36.5 -80.5t-100.5 -30.5q-123 0 -137 100h32q9 -79 105 -79q51 0 78.5 24t27.5 66q0 43 -27.5 67.5t-76.5 24.5h-15v22h17q45 0 70 21t25 56q0 38 -25.5 59.5
t-68.5 21.5q-79 0 -91 -64h-32q8 39 40.5 61.5t82.5 22.5q55 0 89.5 -26.5t34.5 -70.5q0 -68 -84 -89v-6q92 -26 92 -100zM758 127v202l-160 -202h160z" />
    <glyph glyph-name="questiondown" unicode="&#xbf;" horiz-adv-x="482" 
d="M296 681q0 -14 -10 -24t-24 -10q-33 0 -33 34q0 15 9.5 24.5t23.5 9.5t24 -10t10 -24zM408 162q0 -76 -43.5 -120.5t-117.5 -44.5q-67 0 -107 40t-40 107q0 63 37 103q22 24 101 73q52 33 67 45q47 38 47 88q0 42 -27 68t-72 26q-50 0 -78.5 -27.5t-28.5 -75.5v7h-22v-4
q0 120 136 120q53 0 87 -32t34 -83q0 -40 -20 -69t-106 -82q-58 -37 -75 -51q-51 -43 -51 -102q0 -54 32 -87t89 -33q63 0 97.5 37.5t34.5 109.5v-13h26z" />
    <glyph glyph-name="Agrave" unicode="&#xc0;" horiz-adv-x="565" 
d="M582 16h-36l-91 242h-314l-95 -242h-31l290 685zM447 282l-145 371l-152 -371h297zM335 801h-10l-112 139h38z" />
    <glyph glyph-name="Aacute" unicode="&#xc1;" horiz-adv-x="565" 
d="M582 16h-36l-91 242h-314l-95 -242h-31l290 685zM447 282l-145 371l-152 -371h297zM385 940l-112 -139h-10l84 139h38z" />
    <glyph glyph-name="Acircumflex" unicode="&#xc2;" horiz-adv-x="565" 
d="M582 16h-36l-91 242h-314l-95 -242h-31l290 685zM447 282l-145 371l-152 -371h297zM409 801h-8l-101 133l-104 -133h-8l84 139h53z" />
    <glyph glyph-name="Atilde" unicode="&#xc3;" horiz-adv-x="565" 
d="M582 16h-36l-91 242h-314l-95 -242h-31l290 685zM447 282l-145 371l-152 -371h297zM419 898q-24 -58 -75 -58q-7 0 -15 1.5t-12 2.5l-39 13q-14 5 -33 5q-34 0 -54 -30h-12q20 55 75 55l24 -3l38 -13q18 -6 35 -6q39 0 57 33h11z" />
    <glyph glyph-name="Adieresis" unicode="&#xc4;" horiz-adv-x="565" 
d="M582 16h-36l-91 242h-314l-95 -242h-31l290 685zM447 282l-145 371l-152 -371h297zM416 862q0 -31 -31 -31q-14 0 -23 8t-9 23q0 13 9.5 22.5t22.5 9.5t22 -9t9 -23zM245 862q0 -31 -32 -31q-31 0 -31 31q0 12 9 22t22 10t22.5 -9.5t9.5 -22.5z" />
    <glyph glyph-name="Aring" unicode="&#xc5;" horiz-adv-x="565" 
d="M404 848q0 -41 -29 -70t-70 -29t-70 29t-29 70t29 70t70 29q42 0 70.5 -28.5t28.5 -70.5zM582 16h-36l-91 242h-314l-95 -242h-31l292 681zM386 848q0 35 -23 58t-58 23q-34 0 -57.5 -23.5t-23.5 -57.5t23.5 -57.5t57.5 -23.5t57.5 23.5t23.5 57.5zM447 282l-145 369
l-152 -369h297z" />
    <glyph glyph-name="AE" unicode="&#xc6;" horiz-adv-x="792" 
d="M798 16h-292l-83 242h-282l-86 -242h-28l246 683h280l9 -29h-247l88 -256h257l10 -29h-257l116 -340h260zM415 282l-127 388l-141 -388h268z" />
    <glyph glyph-name="Ccedilla" unicode="&#xc7;" horiz-adv-x="683" 
d="M648 648l-1 -32q-96 74 -210 74q-147 0 -237.5 -92.5t-90.5 -240.5q0 -149 90.5 -240.5t228.5 -91.5q117 0 215 67l-1 -35q-49 -30 -103 -45t-108 -15q-156 0 -258 100t-102 260q0 156 103 257t257 101q128 0 217 -67zM537 -123q0 -77 -102 -77q-47 0 -115 17v28
q23 -4 57.5 -9.5t49.5 -5.5q64 0 64 46q0 47 -70 47l-19 -1v75h24v-49h10q48 0 74.5 -19t26.5 -52z" />
    <glyph glyph-name="Egrave" unicode="&#xc8;" horiz-adv-x="481" 
d="M427 16h-322v683h322v-29h-289v-256h289v-29h-289v-340h289v-29zM300 801h-10l-112 139h38z" />
    <glyph glyph-name="Eacute" unicode="&#xc9;" horiz-adv-x="481" 
d="M427 16h-322v683h322v-29h-289v-256h289v-29h-289v-340h289v-29zM350 940l-112 -139h-10l84 139h38z" />
    <glyph glyph-name="Ecircumflex" unicode="&#xca;" horiz-adv-x="481" 
d="M427 16h-322v683h322v-29h-289v-256h289v-29h-289v-340h289v-29zM374 801h-8l-101 133l-104 -133h-8l84 139h53z" />
    <glyph glyph-name="Edieresis" unicode="&#xcb;" horiz-adv-x="481" 
d="M427 16h-322v683h322v-29h-289v-256h289v-29h-289v-340h289v-29zM381 862q0 -31 -31 -31q-14 0 -23 8t-9 23q0 13 9.5 22.5t22.5 9.5t22 -9t9 -23zM210 862q0 -31 -32 -31q-31 0 -31 31q0 12 9 22t22 10t22.5 -9.5t9.5 -22.5z" />
    <glyph glyph-name="Igrave" unicode="&#xcc;" horiz-adv-x="211" 
d="M138 16h-33v683h33v-683zM158 801h-10l-112 139h38z" />
    <glyph glyph-name="Iacute" unicode="&#xcd;" horiz-adv-x="211" 
d="M138 16h-33v683h33v-683zM208 940l-112 -139h-10l84 139h38z" />
    <glyph glyph-name="Icircumflex" unicode="&#xce;" horiz-adv-x="211" 
d="M138 16h-33v683h33v-683zM232 801h-8l-101 133l-104 -133h-8l84 139h53z" />
    <glyph glyph-name="Idieresis" unicode="&#xcf;" horiz-adv-x="211" 
d="M138 16h-33v683h33v-683zM239 862q0 -31 -31 -31q-14 0 -23 8t-9 23q0 13 9.5 22.5t22.5 9.5t22 -9t9 -23zM68 862q0 -31 -32 -31q-31 0 -31 31q0 12 9 22t22 10t22.5 -9.5t9.5 -22.5z" />
    <glyph glyph-name="Eth" unicode="&#xd0;" horiz-adv-x="669" 
d="M630 357q0 -188 -117 -279q-51 -40 -125 -53q-52 -9 -152 -9h-126v372h-94v18h94v293h95q129 0 176 -7q80 -12 133 -54q116 -97 116 -281zM592 358q0 154 -76 239q-47 51 -119 68q-52 12 -162 12h-92v-271h208v-18h-208v-348h111q88 0 126 6q59 9 98 38q55 39 84.5 109.5
t29.5 164.5z" />
    <glyph glyph-name="Ntilde" unicode="&#xd1;" horiz-adv-x="713" 
d="M640 22l-502 599v-605h-33v686l502 -598v595h33v-677zM493 898q-24 -58 -75 -58q-7 0 -15 1.5t-12 2.5l-39 13q-14 5 -33 5q-34 0 -54 -30h-12q20 55 75 55l24 -3l38 -13q18 -6 35 -6q39 0 57 33h11z" />
    <glyph glyph-name="Ograve" unicode="&#xd2;" horiz-adv-x="843" 
d="M804 356q0 -150 -107.5 -254.5t-259.5 -104.5q-74 0 -140.5 27t-118.5 78q-107 105 -107 254q0 152 106 255.5t260 103.5q155 0 260 -103q53 -51 80 -116.5t27 -139.5zM767 356q0 140 -96 237t-234 97q-137 0 -233 -97t-96 -237q0 -139 95 -236t234 -97q138 0 234 97
t96 236zM474 801h-10l-112 139h38z" />
    <glyph glyph-name="Oacute" unicode="&#xd3;" horiz-adv-x="843" 
d="M804 356q0 -150 -107.5 -254.5t-259.5 -104.5q-74 0 -140.5 27t-118.5 78q-107 105 -107 254q0 152 106 255.5t260 103.5q155 0 260 -103q53 -51 80 -116.5t27 -139.5zM767 356q0 140 -96 237t-234 97q-137 0 -233 -97t-96 -237q0 -139 95 -236t234 -97q138 0 234 97
t96 236zM524 940l-112 -139h-10l84 139h38z" />
    <glyph glyph-name="Ocircumflex" unicode="&#xd4;" horiz-adv-x="843" 
d="M804 356q0 -150 -107.5 -254.5t-259.5 -104.5q-74 0 -140.5 27t-118.5 78q-107 105 -107 254q0 152 106 255.5t260 103.5q155 0 260 -103q53 -51 80 -116.5t27 -139.5zM767 356q0 140 -96 237t-234 97q-137 0 -233 -97t-96 -237q0 -139 95 -236t234 -97q138 0 234 97
t96 236zM548 801h-8l-101 133l-104 -133h-8l84 139h53z" />
    <glyph glyph-name="Otilde" unicode="&#xd5;" horiz-adv-x="843" 
d="M804 356q0 -150 -107.5 -254.5t-259.5 -104.5q-74 0 -140.5 27t-118.5 78q-107 105 -107 254q0 152 106 255.5t260 103.5q155 0 260 -103q53 -51 80 -116.5t27 -139.5zM767 356q0 140 -96 237t-234 97q-137 0 -233 -97t-96 -237q0 -139 95 -236t234 -97q138 0 234 97
t96 236zM558 898q-24 -58 -75 -58q-7 0 -15 1.5t-12 2.5l-39 13q-14 5 -33 5q-34 0 -54 -30h-12q20 55 75 55l24 -3l38 -13q18 -6 35 -6q39 0 57 33h11z" />
    <glyph glyph-name="Odieresis" unicode="&#xd6;" horiz-adv-x="843" 
d="M804 356q0 -150 -107.5 -254.5t-259.5 -104.5q-74 0 -140.5 27t-118.5 78q-107 105 -107 254q0 152 106 255.5t260 103.5q155 0 260 -103q53 -51 80 -116.5t27 -139.5zM767 356q0 140 -96 237t-234 97q-137 0 -233 -97t-96 -237q0 -139 95 -236t234 -97q138 0 234 97
t96 236zM555 862q0 -31 -31 -31q-14 0 -23 8t-9 23q0 13 9.5 22.5t22.5 9.5t22 -9t9 -23zM384 862q0 -31 -32 -31q-31 0 -31 31q0 12 9 22t22 10t22.5 -9.5t9.5 -22.5z" />
    <glyph glyph-name="multiply" unicode="&#xd7;" horiz-adv-x="801" 
d="M176 560l240 -240l240 240l22 -22l-240 -240l240 -240l-22 -22l-240 240l-240 -240l-22 22l240 240l-240 240z" />
    <glyph glyph-name="Oslash" unicode="&#xd8;" horiz-adv-x="843" 
d="M804 357q0 -82 -34 -153t-100 -124q-100 -80 -238 -80q-68 0 -123.5 20.5t-115.5 69.5l-86 -89l-10 11l87 89q-56 53 -84.5 118.5t-28.5 137.5q0 150 107 254q53 51 118.5 78t140.5 27q72 0 134.5 -23.5t117.5 -73.5l90 94l11 -11l-91 -93q52 -56 78.5 -121t26.5 -131z
M767 357q0 61 -20 113.5t-68 117.5l-463 -476q60 -47 111 -67t110 -20q137 0 233.5 96.5t96.5 235.5zM667 598q-55 49 -110 70.5t-120 21.5q-137 0 -232.5 -96.5t-95.5 -236.5q0 -65 21 -117.5t75 -117.5z" />
    <glyph glyph-name="Ugrave" unicode="&#xd9;" horiz-adv-x="660" 
d="M590 269q0 -137 -60.5 -204.5t-183.5 -67.5q-244 0 -244 272v430h33v-451q0 -114 51.5 -169.5t159.5 -55.5q211 0 211 225v451h33v-430zM382 801h-10l-112 139h38z" />
    <glyph glyph-name="Uacute" unicode="&#xda;" horiz-adv-x="660" 
d="M590 269q0 -137 -60.5 -204.5t-183.5 -67.5q-244 0 -244 272v430h33v-451q0 -114 51.5 -169.5t159.5 -55.5q211 0 211 225v451h33v-430zM432 940l-112 -139h-10l84 139h38z" />
    <glyph glyph-name="Ucircumflex" unicode="&#xdb;" horiz-adv-x="660" 
d="M590 269q0 -137 -60.5 -204.5t-183.5 -67.5q-244 0 -244 272v430h33v-451q0 -114 51.5 -169.5t159.5 -55.5q211 0 211 225v451h33v-430zM456 801h-8l-101 133l-104 -133h-8l84 139h53z" />
    <glyph glyph-name="Udieresis" unicode="&#xdc;" horiz-adv-x="660" 
d="M590 269q0 -137 -60.5 -204.5t-183.5 -67.5q-244 0 -244 272v430h33v-451q0 -114 51.5 -169.5t159.5 -55.5q211 0 211 225v451h33v-430zM463 862q0 -31 -31 -31q-14 0 -23 8t-9 23q0 13 9.5 22.5t22.5 9.5t22 -9t9 -23zM292 862q0 -31 -32 -31q-31 0 -31 31q0 12 9 22
t22 10t22.5 -9.5t9.5 -22.5z" />
    <glyph glyph-name="Yacute" unicode="&#xdd;" horiz-adv-x="514" 
d="M513 699l-222 -365v-318h-33v318l-224 365h40l201 -343l202 343h36zM359 940l-112 -139h-10l84 139h38z" />
    <glyph glyph-name="Thorn" unicode="&#xde;" 
d="M451 372q0 -96 -55 -139t-167 -43h-91v-174h-33v683h33v-146h81q79 0 110.5 -8t57.5 -26q30 -22 47 -60.5t17 -86.5zM414 366q0 85 -54 129q-23 19 -62 25.5t-100 6.5h-60v-312h60q115 0 160 26q56 32 56 125z" />
    <glyph glyph-name="germandbls" unicode="&#xdf;" horiz-adv-x="485" 
d="M453 211q0 -100 -51 -158.5t-141 -58.5q-20 0 -44 8v28q21 -7 48 -7q74 0 115.5 48.5t41.5 140.5q0 95 -45 145t-129 50l-20 -1v27h8q142 0 142 148q0 147 -134 147q-72 0 -105 -56q-11 -20 -15.5 -51t-4.5 -73v-532h-28v382h-59v19h59v161q0 84 41.5 128.5t116.5 44.5
q74 0 116.5 -46.5t42.5 -127.5q0 -103 -96 -140l4 -31q67 -7 102 -57t35 -138z" />
    <glyph glyph-name="agrave" unicode="&#xe0;" horiz-adv-x="509" 
d="M444 16h-28v109l-27 -42q-32 -44 -61 -63q-35 -23 -80 -23q-87 0 -139 59t-52 158q0 97 52 158t133 61q107 0 152 -86l24 -35l-2 105h28v-401zM417 223q0 88 -43.5 137.5t-118.5 49.5q-73 0 -118 -52.5t-45 -145.5t42 -142t120 -49q73 0 118 53t45 149zM307 519h-10
l-112 139h38z" />
    <glyph glyph-name="aacute" unicode="&#xe1;" horiz-adv-x="509" 
d="M444 16h-28v109l-27 -42q-32 -44 -61 -63q-35 -23 -80 -23q-87 0 -139 59t-52 158q0 97 52 158t133 61q107 0 152 -86l24 -35l-2 105h28v-401zM417 223q0 88 -43.5 137.5t-118.5 49.5q-73 0 -118 -52.5t-45 -145.5t42 -142t120 -49q73 0 118 53t45 149zM357 658
l-112 -139h-10l84 139h38z" />
    <glyph glyph-name="acircumflex" unicode="&#xe2;" horiz-adv-x="509" 
d="M444 16h-28v109l-27 -42q-32 -44 -61 -63q-35 -23 -80 -23q-87 0 -139 59t-52 158q0 97 52 158t133 61q107 0 152 -86l24 -35l-2 105h28v-401zM417 223q0 88 -43.5 137.5t-118.5 49.5q-73 0 -118 -52.5t-45 -145.5t42 -142t120 -49q73 0 118 53t45 149zM381 519h-8
l-101 133l-104 -133h-8l84 139h53z" />
    <glyph glyph-name="atilde" unicode="&#xe3;" horiz-adv-x="509" 
d="M444 16h-28v109l-27 -42q-32 -44 -61 -63q-35 -23 -80 -23q-87 0 -139 59t-52 158q0 97 52 158t133 61q107 0 152 -86l24 -35l-2 105h28v-401zM417 223q0 88 -43.5 137.5t-118.5 49.5q-73 0 -118 -52.5t-45 -145.5t42 -142t120 -49q73 0 118 53t45 149zM391 616
q-24 -58 -75 -58q-7 0 -15 1.5t-12 2.5l-39 13q-14 5 -33 5q-34 0 -54 -30h-12q20 55 75 55l24 -3l38 -13q18 -6 35 -6q39 0 57 33h11z" />
    <glyph glyph-name="adieresis" unicode="&#xe4;" horiz-adv-x="509" 
d="M444 16h-28v109l-27 -42q-32 -44 -61 -63q-35 -23 -80 -23q-87 0 -139 59t-52 158q0 97 52 158t133 61q107 0 152 -86l24 -35l-2 105h28v-401zM417 223q0 88 -43.5 137.5t-118.5 49.5q-73 0 -118 -52.5t-45 -145.5t42 -142t120 -49q73 0 118 53t45 149zM388 580
q0 -31 -31 -31q-14 0 -23 8t-9 23q0 13 9.5 22.5t22.5 9.5t22 -9t9 -23zM217 580q0 -31 -32 -31q-31 0 -31 31q0 12 9 22t22 10t22.5 -9.5t9.5 -22.5z" />
    <glyph glyph-name="aring" unicode="&#xe5;" horiz-adv-x="509" 
d="M356 596q0 -41 -29 -70t-70 -29t-70 29t-29 70t29 70t70 29q42 0 70.5 -28.5t28.5 -70.5zM444 16h-28v63l-31 6q-18 -42 -54 -65t-83 -23q-87 0 -139 59t-52 158q0 97 52 158t133 61q102 0 144 -86l30 7v63h28v-401zM338 596q0 35 -23.5 58.5t-57.5 23.5q-33 0 -57 -24
t-24 -58t23.5 -57.5t57.5 -23.5t57.5 23.5t23.5 57.5zM417 223q0 88 -43.5 137.5t-118.5 49.5q-73 0 -118 -52.5t-45 -145.5t42 -142t120 -49q73 0 118 53t45 149z" />
    <glyph glyph-name="ae" unicode="&#xe6;" horiz-adv-x="761" 
d="M733 226v4h-345q0 -101 45 -155.5t116 -54.5q103 0 154 97l28 -14q-63 -107 -181 -107q-58 0 -98.5 29t-81.5 103q-15 -71 -57 -101.5t-114 -30.5q-68 0 -108 34t-40 90q0 58 43.5 94.5t117.5 36.5q41 0 74 -12.5t75 -48.5l4 66q0 157 -151 157q-35 0 -66 -7t-65 -22
l1 28q72 22 135 22q64 0 104.5 -26.5t58.5 -90.5q32 61 73 88t92 27q85 0 135.5 -55.5t50.5 -150.5zM695 249q0 77 -41.5 117.5t-110.5 40.5q-60 0 -102.5 -41.5t-49.5 -116.5h304zM359 132q0 43 -36.5 70.5t-100.5 27.5q-66 0 -101.5 -29.5t-35.5 -78.5q0 -48 34 -75.5
t96 -27.5q65 0 104.5 33t39.5 80z" />
    <glyph glyph-name="ccedilla" unicode="&#xe7;" horiz-adv-x="424" 
d="M409 25q-60 -30 -138 -30q-92 0 -151 61t-59 155q0 99 61.5 160.5t160.5 61.5q70 0 119 -23l-1 -28q-56 30 -119 30q-89 0 -140.5 -55.5t-51.5 -149.5q0 -82 53.5 -136.5t138.5 -54.5q65 0 127 36v-27zM383 -123q0 -77 -102 -77q-47 0 -115 17v28q23 -4 57.5 -9.5
t49.5 -5.5q64 0 64 46q0 47 -70 47l-19 -1v75h24v-49h10q48 0 74.5 -19t26.5 -52z" />
    <glyph glyph-name="egrave" unicode="&#xe8;" horiz-adv-x="465" 
d="M436 230l-344 1q0 -102 45 -157t119 -55q98 0 150 98l28 -15q-60 -105 -178 -105q-89 0 -143 59.5t-54 155.5q0 101 54 161t141 60q82 0 132 -55t50 -148zM398 250q0 77 -41 117t-111 40q-60 0 -102.5 -41.5t-49.5 -115.5h304zM285 519h-10l-112 139h38z" />
    <glyph glyph-name="eacute" unicode="&#xe9;" horiz-adv-x="465" 
d="M436 230l-344 1q0 -102 45 -157t119 -55q98 0 150 98l28 -15q-60 -105 -178 -105q-89 0 -143 59.5t-54 155.5q0 101 54 161t141 60q82 0 132 -55t50 -148zM398 250q0 77 -41 117t-111 40q-60 0 -102.5 -41.5t-49.5 -115.5h304zM335 658l-112 -139h-10l84 139h38z" />
    <glyph glyph-name="ecircumflex" unicode="&#xea;" horiz-adv-x="465" 
d="M436 230l-344 1q0 -102 45 -157t119 -55q98 0 150 98l28 -15q-60 -105 -178 -105q-89 0 -143 59.5t-54 155.5q0 101 54 161t141 60q82 0 132 -55t50 -148zM398 250q0 77 -41 117t-111 40q-60 0 -102.5 -41.5t-49.5 -115.5h304zM359 519h-8l-101 133l-104 -133h-8l84 139
h53z" />
    <glyph glyph-name="edieresis" unicode="&#xeb;" horiz-adv-x="465" 
d="M436 230l-344 1q0 -102 45 -157t119 -55q98 0 150 98l28 -15q-60 -105 -178 -105q-89 0 -143 59.5t-54 155.5q0 101 54 161t141 60q82 0 132 -55t50 -148zM398 250q0 77 -41 117t-111 40q-60 0 -102.5 -41.5t-49.5 -115.5h304zM366 580q0 -31 -31 -31q-14 0 -23 8t-9 23
q0 13 9.5 22.5t22.5 9.5t22 -9t9 -23zM195 580q0 -31 -32 -31q-31 0 -31 31q0 12 9 22t22 10t22.5 -9.5t9.5 -22.5z" />
    <glyph glyph-name="igrave" unicode="&#xec;" horiz-adv-x="198" 
d="M129 16h-28v401h28v-401zM151 519h-10l-112 139h38z" />
    <glyph glyph-name="iacute" unicode="&#xed;" horiz-adv-x="198" 
d="M129 16h-28v401h28v-401zM201 658l-112 -139h-10l84 139h38z" />
    <glyph glyph-name="icircumflex" unicode="&#xee;" horiz-adv-x="198" 
d="M129 16h-28v401h28v-401zM225 519h-8l-101 133l-104 -133h-8l84 139h53z" />
    <glyph glyph-name="idieresis" unicode="&#xef;" horiz-adv-x="198" 
d="M129 16h-28v401h28v-401zM232 580q0 -31 -31 -31q-14 0 -23 8t-9 23q0 13 9.5 22.5t22.5 9.5t22 -9t9 -23zM61 580q0 -31 -32 -31q-31 0 -31 31q0 12 9 22t22 10t22.5 -9.5t9.5 -22.5z" />
    <glyph glyph-name="eth" unicode="&#xf0;" horiz-adv-x="524" 
d="M498 242q0 -113 -61 -179t-160 -66q-91 0 -155.5 61t-64.5 149q0 86 64 148t147 62q45 0 88 -22t108 -79q-25 99 -68 170t-115 136l-150 -70l-7 12l144 69q-33 24 -73 51q-33 22 -54 34l11 17q28 -17 68 -43t70 -50l162 76l9 -15l-153 -73q97 -98 143.5 -193t46.5 -195z
M463 209q0 78 -54 133t-132 55q-79 0 -132.5 -54.5t-53.5 -133.5q0 -78 54 -133t132 -55q77 0 131.5 54.5t54.5 133.5z" />
    <glyph glyph-name="ntilde" unicode="&#xf1;" horiz-adv-x="489" 
d="M430 16h-28v251q0 144 -128 144q-150 0 -150 -185v-210h-28v401h25v-105q26 71 76 100q37 21 93 21q66 0 103 -36t37 -103v-278zM381 616q-24 -58 -75 -58q-7 0 -15 1.5t-12 2.5l-39 13q-14 5 -33 5q-34 0 -54 -30h-12q20 55 75 55l24 -3l38 -13q18 -6 35 -6q39 0 57 33
h11z" />
    <glyph glyph-name="ograve" unicode="&#xf2;" horiz-adv-x="526" 
d="M498 216q0 -91 -65 -155t-156 -64q-90 0 -153.5 63.5t-63.5 155.5q0 91 63 154t154 63q93 0 157 -63t64 -154zM465 215q0 82 -54 138t-132 56q-79 0 -132.5 -55.5t-53.5 -138.5q0 -82 54 -138t132 -56q77 0 131.5 55.5t54.5 138.5zM315 519h-10l-112 139h38z" />
    <glyph glyph-name="oacute" unicode="&#xf3;" horiz-adv-x="526" 
d="M498 216q0 -91 -65 -155t-156 -64q-90 0 -153.5 63.5t-63.5 155.5q0 91 63 154t154 63q93 0 157 -63t64 -154zM465 215q0 82 -54 138t-132 56q-79 0 -132.5 -55.5t-53.5 -138.5q0 -82 54 -138t132 -56q77 0 131.5 55.5t54.5 138.5zM365 658l-112 -139h-10l84 139h38z" />
    <glyph glyph-name="ocircumflex" unicode="&#xf4;" horiz-adv-x="526" 
d="M498 216q0 -91 -65 -155t-156 -64q-90 0 -153.5 63.5t-63.5 155.5q0 91 63 154t154 63q93 0 157 -63t64 -154zM465 215q0 82 -54 138t-132 56q-79 0 -132.5 -55.5t-53.5 -138.5q0 -82 54 -138t132 -56q77 0 131.5 55.5t54.5 138.5zM389 519h-8l-101 133l-104 -133h-8
l84 139h53z" />
    <glyph glyph-name="otilde" unicode="&#xf5;" horiz-adv-x="526" 
d="M498 216q0 -91 -65 -155t-156 -64q-90 0 -153.5 63.5t-63.5 155.5q0 91 63 154t154 63q93 0 157 -63t64 -154zM465 215q0 82 -54 138t-132 56q-79 0 -132.5 -55.5t-53.5 -138.5q0 -82 54 -138t132 -56q77 0 131.5 55.5t54.5 138.5zM399 616q-24 -58 -75 -58q-7 0 -15 1.5
t-12 2.5l-39 13q-14 5 -33 5q-34 0 -54 -30h-12q20 55 75 55l24 -3l38 -13q18 -6 35 -6q39 0 57 33h11z" />
    <glyph glyph-name="odieresis" unicode="&#xf6;" horiz-adv-x="526" 
d="M498 216q0 -91 -65 -155t-156 -64q-90 0 -153.5 63.5t-63.5 155.5q0 91 63 154t154 63q93 0 157 -63t64 -154zM465 215q0 82 -54 138t-132 56q-79 0 -132.5 -55.5t-53.5 -138.5q0 -82 54 -138t132 -56q77 0 131.5 55.5t54.5 138.5zM396 580q0 -31 -31 -31q-14 0 -23 8
t-9 23q0 13 9.5 22.5t22.5 9.5t22 -9t9 -23zM225 580q0 -31 -32 -31q-31 0 -31 31q0 12 9 22t22 10t22.5 -9.5t9.5 -22.5z" />
    <glyph glyph-name="divide" unicode="&#xf7;" horiz-adv-x="801" 
d="M706 286h-579v24h579v-24zM449 467q0 -13 -9 -23t-23 -10t-23 9t-9 24q0 14 9 23t23 9q32 0 32 -32zM449 130q0 -32 -32 -32t-32 32q0 13 9 23t23 10t23 -10t9 -23z" />
    <glyph glyph-name="oslash" unicode="&#xf8;" horiz-adv-x="526" 
d="M498 217q0 -95 -65.5 -157.5t-159.5 -62.5q-40 0 -72 13t-72 47l-56 -54l-6 6l53 54q-33 41 -47 75t-14 73q0 94 63 158t159 64q40 0 73 -13t75 -46l53 54l7 -7l-53 -52q32 -41 47 -78t15 -74zM411 355q-34 29 -63.5 41.5t-63.5 12.5q-84 0 -137.5 -54.5t-53.5 -142.5
q0 -33 10 -60.5t38 -67.5zM464 217q0 34 -9 61t-37 71l-273 -273q39 -30 67.5 -42t62.5 -12q81 0 135 55t54 140z" />
    <glyph glyph-name="ugrave" unicode="&#xf9;" horiz-adv-x="495" 
d="M431 186q0 -189 -167 -189q-168 0 -168 189v231h28v-200q0 -104 30.5 -150t108.5 -46t109 46t31 150v200h28v-231zM300 519h-10l-112 139h38z" />
    <glyph glyph-name="uacute" unicode="&#xfa;" horiz-adv-x="495" 
d="M431 186q0 -189 -167 -189q-168 0 -168 189v231h28v-200q0 -104 30.5 -150t108.5 -46t109 46t31 150v200h28v-231zM350 658l-112 -139h-10l84 139h38z" />
    <glyph glyph-name="ucircumflex" unicode="&#xfb;" horiz-adv-x="495" 
d="M431 186q0 -189 -167 -189q-168 0 -168 189v231h28v-200q0 -104 30.5 -150t108.5 -46t109 46t31 150v200h28v-231zM374 519h-8l-101 133l-104 -133h-8l84 139h53z" />
    <glyph glyph-name="udieresis" unicode="&#xfc;" horiz-adv-x="495" 
d="M431 186q0 -189 -167 -189q-168 0 -168 189v231h28v-200q0 -104 30.5 -150t108.5 -46t109 46t31 150v200h28v-231zM381 580q0 -31 -31 -31q-14 0 -23 8t-9 23q0 13 9.5 22.5t22.5 9.5t22 -9t9 -23zM210 580q0 -31 -32 -31q-31 0 -31 31q0 12 9 22t22 10t22.5 -9.5
t9.5 -22.5z" />
    <glyph glyph-name="yacute" unicode="&#xfd;" horiz-adv-x="371" 
d="M365 417l-213 -619h-29l71 206l-150 413h30l136 -370l124 370h31zM288 658l-112 -139h-10l84 139h38z" />
    <glyph glyph-name="thorn" unicode="&#xfe;" horiz-adv-x="509" 
d="M480 215q0 -101 -50.5 -159.5t-133.5 -58.5q-98 0 -144 90l-30 -7v-282h-26v943h26v-389l31 -6q17 41 54.5 64t85.5 23q85 0 136 -60t51 -158zM447 214q0 92 -43 144t-117 52q-75 0 -119.5 -49.5t-44.5 -141.5q0 -93 48 -145.5t122 -52.5q71 0 112.5 50.5t41.5 142.5z
" />
    <glyph glyph-name="ydieresis" unicode="&#xff;" horiz-adv-x="371" 
d="M365 417l-213 -619h-29l71 206l-150 413h30l136 -370l124 370h31zM319 580q0 -31 -31 -31q-14 0 -23 8t-9 23q0 13 9.5 22.5t22.5 9.5t22 -9t9 -23zM148 580q0 -31 -32 -31q-31 0 -31 31q0 12 9 22t22 10t22.5 -9.5t9.5 -22.5z" />
    <glyph glyph-name="breve" unicode="&#x2d8;" 
d="M365 611q-17 -85 -115 -85t-115 85h7q17 -63 108 -63t107 63h8z" />
    <glyph glyph-name="dotaccent" unicode="&#x2d9;" 
d="M284 580q0 -14 -10 -24t-24 -10t-24 10t-10 24q0 13 10 24t24 11t24 -10t10 -25z" />
    <glyph glyph-name="dotlessi" unicode="&#x131;" horiz-adv-x="198" 
d="M129 16h-28v401h28v-401z" />
    <glyph glyph-name="ring" unicode="&#x2da;" 
d="M355 615q0 -45 -30 -75t-75 -30t-75 30t-30 75q0 44 30.5 74.5t74.5 30.5q45 0 75 -30t30 -75zM336 615q0 35 -25 60t-61 25t-60.5 -24.5t-24.5 -60.5t24 -61t61 -25q36 0 61 25t25 61z" />
    <glyph glyph-name="ogonek" unicode="&#x2db;" 
d="M294 -206h-33q-102 0 -102 74q0 34 23 64q18 24 65 62h18q-61 -58 -61 -109q0 -48 55 -48h35v-43z" />
    <glyph glyph-name="caron" unicode="&#x2c7;" 
d="M360 658l-84 -139h-53l-84 139h8l104 -132l101 132h8z" />
    <glyph glyph-name="Lslash" unicode="&#x141;" horiz-adv-x="386" 
d="M388 16h-278v342l-108 -75l-12 15l120 85v316h33v-303l128 89l12 -17l-140 -97v-326h245v-29z" />
    <glyph glyph-name="lslash" unicode="&#x142;" horiz-adv-x="212" 
d="M232 422l-95 -68v-338h-28v325l-87 -62l-10 14l97 68v380h28v-366l86 61z" />
    <glyph glyph-name="fraction" unicode="&#x2215;" horiz-adv-x="135" 
d="M305 706l-428 -709h-15l428 709h15z" />
    <glyph glyph-name="fi" unicode="&#xf001;" horiz-adv-x="440" 
d="M387 602q0 -12 -8 -21t-22 -9q-13 0 -21.5 8.5t-8.5 21.5t8.5 21.5t21.5 8.5q12 0 21 -8t9 -22zM371 16h-28v401h28v-401zM247 745l-4 -20q-17 6 -31 6q-41 0 -57.5 -31t-16.5 -103v-180h95v-19h-95v-382h-28v382h-81v19h81v141q0 87 5 115q14 77 93 77q7 0 13.5 -0.5
t25.5 -4.5z" />
    <glyph glyph-name="fl" unicode="&#xf002;" horiz-adv-x="445" 
d="M376 16h-28v725h28v-725zM247 745l-4 -20q-17 6 -31 6q-41 0 -57.5 -31t-16.5 -103v-180h95v-19h-95v-382h-28v382h-81v19h81v141q0 87 5 115q14 77 93 77q7 0 13.5 -0.5t25.5 -4.5z" />
    <glyph glyph-name="Zcaron" unicode="&#x17d;" horiz-adv-x="528" 
d="M519 699l-423 -655h393v-28h-448l425 656h-376v27h429zM390 940l-84 -139h-53l-84 139h8l104 -132l101 132h8z" />
    <glyph glyph-name="zcaron" unicode="&#x17e;" horiz-adv-x="349" 
d="M348 16h-308l242 379h-238v22h283l-240 -380h261v-21zM301 658l-84 -139h-53l-84 139h8l104 -132l101 132h8z" />
    </font>
</defs>
</svg>
