<svg width="52" height="49" viewBox="0 0 52 49" fill="none" xmlns="http://www.w3.org/2000/svg">
<path d="M0 0L10 -5.99169e-08L10 44C10 46.7614 7.76143 49 5 49C2.23858 49 -3.00796e-07 46.7614 -2.83033e-07 44L0 0Z" fill="#1D1E1F"/>
<path d="M21 0L31 -5.9917e-08L31 15C31 17.7614 28.7614 20 26 20C23.2386 20 21 17.7614 21 15L21 0Z" fill="#1D1E1F"/>
<path d="M21 34C21 31.2386 23.2386 29 26 29C28.7614 29 31 31.2386 31 34L31 44C31 46.7614 28.7614 49 26 49C23.2386 49 21 46.7614 21 44L21 34Z" fill="#1D1E1F"/>
<path d="M42 0L52 -5.99169e-08L52 44C52 46.7614 49.7614 49 47 49C44.2386 49 42 46.7614 42 44L42 0Z" fill="#1D1E1F"/>
</svg>
