<svg width="32" height="32" viewBox="0 0 32 32" fill="none" xmlns="http://www.w3.org/2000/svg">
<circle cx="16" cy="16" r="15.7276" stroke="" stroke-opacity="0.6" stroke-width="0.544811"/>
<path d="M12.9767 24C10.8577 24.002 8.78291 23.4118 7 22.3C7.30884 22.3348 7.61951 22.352 7.93042 22.3516C9.68594 22.3543 11.3914 21.7839 12.7728 20.732C11.9591 20.717 11.1706 20.4554 10.5175 19.9839C9.86438 19.5124 9.37935 18.8545 9.13019 18.1023C9.37164 18.1477 9.61699 18.1706 9.86291 18.1707C10.2102 18.1707 10.5559 18.126 10.8909 18.0375C10.0084 17.8644 9.21463 17.4003 8.64439 16.7237C8.07415 16.0471 7.76252 15.1999 7.76237 14.3257C7.76237 14.3089 7.76237 14.2933 7.76237 14.2777C8.30356 14.5702 8.90898 14.7327 9.52806 14.7516C8.70253 14.2161 8.11832 13.3952 7.89448 12.4561C7.67064 11.517 7.82401 10.5304 8.32334 9.69724C9.3015 10.8668 10.522 11.8237 11.9056 12.5057C13.2892 13.1878 14.8051 13.5797 16.3548 13.6562C16.1575 12.8434 16.2424 11.99 16.5964 11.2289C16.9503 10.4678 17.5534 9.84155 18.3119 9.44768C19.0703 9.05382 19.9416 8.91439 20.7901 9.05109C21.6386 9.18778 22.4168 9.59293 23.0036 10.2035C23.875 10.0353 24.7107 9.72457 25.4749 9.28455C25.1837 10.1612 24.5748 10.9056 23.7611 11.3792C24.534 11.2885 25.2886 11.0863 26 10.7794C25.4763 11.5398 24.8173 12.2036 24.0539 12.7397C24.0626 12.9016 24.0663 13.0648 24.0663 13.2291C24.0663 18.2307 20.1432 24 12.9717 24" fill="black"/>
</svg>
