<svg width="32" height="32" viewBox="0 0 32 32" fill="none" xmlns="http://www.w3.org/2000/svg">
<circle cx="16" cy="16" r="15.7276" stroke="" stroke-opacity="0.6" stroke-width="0.544811"/>
<path fill-rule="evenodd" clip-rule="evenodd" d="M8 12C8 9.79086 9.79086 8 12 8H20C22.2091 8 24 9.79086 24 12V20C24 22.2091 22.2091 24 20 24H12C9.79086 24 8 22.2091 8 20V12ZM13.3028 15.9854C13.3028 17.467 14.5039 18.668 15.9854 18.668C17.467 18.668 18.668 17.467 18.668 15.9854C18.668 14.5039 17.467 13.3028 15.9854 13.3028C14.5039 13.3028 13.3028 14.5039 13.3028 15.9854ZM15.9854 11.8125C13.6808 11.8125 11.8125 13.6808 11.8125 15.9854C11.8125 18.29 13.6808 20.1583 15.9854 20.1583C18.29 20.1583 20.1583 18.29 20.1583 15.9854C20.1583 13.6808 18.29 11.8125 15.9854 11.8125ZM20.3356 10.1797C19.8418 10.1797 19.4414 10.58 19.4414 11.0739C19.4414 11.5677 19.8418 11.9681 20.3356 11.9681C20.8294 11.9681 21.2298 11.5677 21.2298 11.0739C21.2298 10.58 20.8294 10.1797 20.3356 10.1797Z" fill="black"/>
</svg>
