<svg width="32" height="32" viewBox="0 0 32 32" fill="none" xmlns="http://www.w3.org/2000/svg">
<circle cx="16" cy="16" r="15.7276" stroke="" stroke-opacity="0.6" stroke-width="0.544811"/>
<path d="M16.4032 23.9032H14.371C14.1839 23.9032 14.0323 23.7516 14.0323 23.5645V17.4677H12.3387C12.1516 17.4677 12 17.3161 12 17.129V15.0968C12 14.9097 12.1516 14.7581 12.3387 14.7581H14.0323V11.0323C14.0323 9.90987 14.9421 9 16.0645 9H19.1129C19.3 9 19.4516 9.15165 19.4516 9.33871V11.371C19.4516 11.558 19.3 11.7097 19.1129 11.7097H17.4194C17.0452 11.7097 16.7419 12.013 16.7419 12.3871V14.7581H19.3565C19.5769 14.7581 19.7386 14.9651 19.6851 15.1789L19.177 17.2112C19.1393 17.362 19.0039 17.4677 18.8484 17.4677H16.7419V23.5645C16.7419 23.7516 16.5903 23.9032 16.4032 23.9032Z" fill="black"/>
</svg>
