<svg width="32" height="32" viewBox="0 0 32 32" fill="none" xmlns="http://www.w3.org/2000/svg">
<circle cx="16" cy="16" r="15.7276" stroke="" stroke-opacity="0.6" stroke-width="0.544811"/>
<g clip-path="url(#clip0_941_1197)">
<path d="M15.8802 21.0647C15.8802 21.3165 15.83 21.5659 15.7325 21.7986C15.635 22.0312 15.492 22.2427 15.3118 22.4207C15.1315 22.5988 14.9176 22.7401 14.6821 22.8364C14.4466 22.9328 14.1943 22.9824 13.9394 22.9824C13.6845 22.9824 13.4321 22.9328 13.1967 22.8364C12.9612 22.7401 12.7472 22.5988 12.567 22.4207C12.3868 22.2427 12.2438 22.0312 12.1463 21.7986C12.0488 21.5659 11.9986 21.3165 11.9986 21.0647V10.9459C11.9986 10.6941 12.0488 10.4447 12.1463 10.2121C12.2438 9.97938 12.3868 9.76797 12.567 9.58989C12.7472 9.41181 12.9612 9.27055 13.1967 9.17418C13.4321 9.0778 13.6845 9.0282 13.9394 9.0282C14.1943 9.0282 14.4466 9.0778 14.6821 9.17418C14.9176 9.27055 15.1315 9.41181 15.3118 9.58989C15.492 9.76797 15.635 9.97938 15.7325 10.2121C15.83 10.4447 15.8802 10.6941 15.8802 10.9459V21.0647Z" fill="black"/>
<path d="M15.0216 22.7088C14.8058 22.8427 14.5654 22.9334 14.3141 22.9756C14.0628 23.0178 13.8056 23.0107 13.5571 22.9546C13.0553 22.8414 12.6195 22.5359 12.3456 22.1052C12.0718 21.6746 11.9823 21.1541 12.0968 20.6582C12.2114 20.1623 12.5206 19.7317 12.9564 19.4611L21.0323 14.4485C21.2481 14.3145 21.4885 14.2238 21.7398 14.1816C21.9911 14.1395 22.2483 14.1466 22.4968 14.2026C22.7453 14.2587 22.9802 14.3625 23.188 14.5083C23.3959 14.654 23.5727 14.8388 23.7083 15.052C23.8439 15.2652 23.9357 15.5028 23.9783 15.7511C24.021 15.9994 24.0138 16.2535 23.9571 16.499C23.9004 16.7446 23.7953 16.9767 23.6478 17.1821C23.5003 17.3875 23.3133 17.5621 23.0975 17.6961L15.0216 22.7088Z" fill="black"/>
<path d="M15.0155 9.29305C14.7997 9.15906 14.5593 9.06839 14.308 9.02622C14.0567 8.98405 13.7994 8.9912 13.5509 9.04726C13.3024 9.10333 13.0675 9.20721 12.8596 9.35297C12.6517 9.49873 12.4749 9.68353 12.3393 9.8968C12.2037 10.1101 12.112 10.3477 12.0693 10.596C12.0266 10.8443 12.0339 11.0985 12.0906 11.344C12.1473 11.5896 12.2525 11.8217 12.4 12.0271C12.5475 12.2325 12.7345 12.4072 12.9504 12.5412L21.0219 17.5524C21.2377 17.6863 21.4781 17.777 21.7294 17.8192C21.9807 17.8614 22.2379 17.8543 22.4864 17.7982C22.7349 17.7422 22.9697 17.6383 23.1776 17.4926C23.3855 17.3468 23.5622 17.1621 23.6978 16.9488C23.8334 16.7356 23.9252 16.4981 23.9679 16.2498C24.0106 16.0015 24.0034 15.7473 23.9467 15.5018C23.89 15.2563 23.7848 15.0242 23.6374 14.8188C23.4899 14.6134 23.3029 14.4387 23.0871 14.3047L15.0155 9.29305Z" fill="black"/>
</g>
<defs>
<clipPath id="clip0_941_1197">
<rect width="12" height="14" fill="white" transform="translate(12 9)"/>
</clipPath>
</defs>
</svg>
