<svg width="32" height="32" viewBox="0 0 32 32" fill="none" xmlns="http://www.w3.org/2000/svg">
<circle cx="16" cy="16" r="15.7276" stroke="" stroke-opacity="0.6" stroke-width="0.544811"/>
<path fill-rule="evenodd" clip-rule="evenodd" d="M10.8134 9.61329C9.20761 9.80814 8 11.1711 8 12.7887V19.6037C8 20.9974 9.04052 22.1718 10.4241 22.3397C14.0397 22.7784 17.6945 22.7856 21.3117 22.3611L21.4868 22.3405C22.9198 22.1723 24 20.958 24 19.5152V12.8909C24 11.2167 22.7466 9.80757 21.0838 9.61242L20.9223 9.59346C17.5638 9.1993 14.1703 9.20596 10.8134 9.61329ZM18.25 16.4331C18.5833 16.2407 18.5833 15.7596 18.25 15.5671L15.25 13.8351C14.9167 13.6426 14.5 13.8832 14.5 14.2681V17.7322C14.5 18.1171 14.9167 18.3576 15.25 18.1652L18.25 16.4331Z" fill="black"/>
</svg>
