<?xml version="1.0" encoding="utf-8"?>
<!-- Generator: Adobe Illustrator 26.5.2, SVG Export Plug-In . SVG Version: 6.00 Build 0)  -->
<svg version="1.1" id="레이어_1" xmlns="http://www.w3.org/2000/svg" xmlns:xlink="http://www.w3.org/1999/xlink" x="0px"
	 y="0px" viewBox="0 0 127 33" style="enable-background:new 0 0 127 33;" xml:space="preserve">
<style type="text/css">
	.st0{fill:#FFFFFF;}
</style>
<g>
	<g>
		<path class="st0" d="M126.4,20.6v0.2c-0.1,3.2-1.2,5.7-3.3,7.6c-3.6,3.3-9,3-10.3,3h-0.3V16.5h0.4c2.6,0,5.6-0.2,6.1,6.2l0,0.2
			h0.5V9.5h-0.5l0,0.2c-0.7,6.1-3.7,6.1-6.3,6.1h-0.2V1.7c0.3,0,0.9,0,1.2,0c4.8-0.1,9.5-0.6,11.5,9.6l0,0.2h0.5V0.9H98.4v0.7h2.4
			v22.2c-0.1,3.2-1.3,5.1-2.4,6.2c-1.3,1.2-3,1.9-4.8,1.8c-6.2-0.2-6.3-6.4-6.3-6.7V1.6h2.8V1.2V0.9H79.1v0.7H82v20.9
			c0,5.7,2.9,10.1,11.4,10.1c5.7,0,8.3-4.7,8.2-8.6V1.6h2.6h3.1v29.7h-2.8V32H127V20.6L126.4,20.6z"/>
		<path class="st0" d="M69.5,18.7v0.7H72v6.5c0,4.8-3.2,5.9-5.7,6c-2.7,0-4.5-1.3-5.6-4.1c-1-2.7-1.6-5.3-1.6-11.4
			c0-2.2,0.3-9.2,1.9-12.3c0.6-1.2,1.7-3.3,5.1-3.3h0c4.1,0,6.5,2.9,8.4,10.5l0,0.2h0.5V0h-0.4l-0.1,0.1c-0.4,1-1.5,1.3-2.4,1.2
			c-0.4,0-0.7-0.1-1.1-0.1c-0.3-0.1-0.4-0.1-0.4-0.1C70.3,1,70,0.9,69.6,0.8c-0.1,0-0.3-0.1-0.4-0.1c-1-0.3-1.8-0.6-3-0.6
			c-5.4,0-12.8,5.5-12.8,16.8c0,9.2,5.5,15.8,13.1,15.8c1.4,0,2.6-0.5,3.7-1c0.2-0.1,0.4-0.2,0.6-0.3c1.1-0.5,2.1-1,3.2-1h0.1h0.1
			c0.7,0,2,0.4,2.2,1.7l0,0.2h0.4V19.4h2.4v-0.7H69.5z"/>
		<path class="st0" d="M37.3,0.2c-6.4,0-13.4,6.4-13.4,16.2c0,9.8,7.2,16.2,13.4,16.2s13.4-6.5,13.4-16.2
			C50.7,6.5,43.7,0.2,37.3,0.2z M44.8,15.1c0,0.1,0,0.1,0,0.2c0,0.1,0,0.1,0,0.2c0,0,0,0.1,0,0.1c0,0,0,0.1,0,0.2v0.1
			c0,0.1,0,0.1,0,0.2v0.3v0.2c0,1.8-0.2,8.8-2,12.3c-1,2-3.1,3.1-5.5,3.1c-2.4,0-4.5-1.1-5.5-3.1c-1.8-3.5-2-10.5-2-12.3v-0.2v-0.2
			c0-0.1,0-0.1,0-0.2v-0.1c0-0.1,0-0.1,0-0.2c0-0.1,0-0.1,0-0.1c0,0,0-0.1,0-0.2c0-0.1,0-0.1,0-0.2c0,0,0-0.1,0-0.1
			c0.1-2.8,0.4-8,2-11.1c1.2-2.5,3.8-3.1,5.5-3.1c1.7,0,4.2,0.5,5.5,3.1C44.3,7,44.7,12.3,44.8,15.1C44.8,15.1,44.8,15.1,44.8,15.1
			L44.8,15.1z"/>
		<path class="st0" d="M26.4,0.9h-5.7h-0.2v0.7H23l-6.8,22.7L8,1.6h0.1h2.2V1.2h0V0.9h0H0v0.3v0.4h2.7H3l11.5,30.6h0.2l9.2-30.6h0.3
			h2.5V0.9H26.4z"/>
	</g>
</g>
</svg>
