<svg width="270" height="70" viewBox="0 0 270 70" fill="none" xmlns="http://www.w3.org/2000/svg">
<path d="M269.627 44.1382C268.525 68.1451 241.573 67.5777 239.234 67.486V35.2381C244.982 35.2381 252.787 34.4219 253.937 49.0836H254.14V20.8907H253.941C252.46 34.4219 244.836 34.5179 239.238 34.5179V3.69736C250.293 3.69736 262.366 1.5542 267.057 24.9239H267.327V2.92041H209.278V3.56205H215.301V51.3097C215.08 63.2957 206.267 68.7911 199.47 68.5511C187 68.1146 185.571 56.4516 185.571 54.0552V3.56205H191.537V2.92041H168.316V3.56205H174.468V48.2063C174.468 60.1748 180.628 69.4066 198.617 69.4066C210.68 69.4066 216.217 59.5113 216.093 51.3097V3.56205H221.563H228.028V67.4773H222.178V68.1669H269.958V44.16L269.627 44.1382Z" fill="black"/>
<path d="M147.916 41.3273H153.258V55.7882C153.258 62.4796 150.331 68.5905 141.071 68.7694C134.411 68.8611 130.754 65.1379 128.809 59.9829C126.695 54.4657 125.921 48.6778 125.921 35.5613C125.921 27.1458 126.695 14.6621 129.618 9.05761C131.002 6.43867 133.518 1.79005 140.912 1.8206C150.198 1.85552 155.576 9.32823 159.555 24.9764H159.75V1H159.538C157.588 5.6137 150.251 3.35705 150.251 3.35705C146.187 2.09123 144.401 1.1746 140.828 1.1746C129.375 1.1746 113.619 12.6587 113.619 36.3601C113.619 55.7184 125.395 69.3936 141.478 69.3936C148.138 69.3936 152.201 64.5922 157.888 64.5922C159.657 64.5922 162.952 65.6966 163.518 68.5207H163.655V41.3273H168.714V40.6813H147.93L147.916 41.3273Z" fill="black"/>
<path d="M79.5203 1.33643C65.9356 1.33643 51.0464 14.7367 51.0464 35.195C51.0464 55.6532 66.422 69.2412 79.5203 69.2412C92.6185 69.2412 107.99 55.662 107.99 35.195C107.99 14.7279 93.1049 1.33643 79.5203 1.33643ZM91.1504 61.8994C88.7094 66.6091 84.4819 68.5995 79.5203 68.5995C74.5587 68.5995 70.3267 66.6091 67.8857 61.8994C63.981 54.5664 63.614 39.813 63.614 35.195C63.614 30.5769 63.981 16.2731 67.8857 8.66946C70.2471 3.95973 74.5542 1.9737 79.5203 1.9737C84.4863 1.9737 88.8067 3.95973 91.1504 8.66946C95.0551 16.2731 95.4221 30.5769 95.4221 35.195C95.4221 39.813 95.0551 54.5664 91.1504 61.8994Z" fill="black"/>
<path d="M57.0643 3.55338V2.9292H44.9212V3.55338H51.0547L35.9576 53.4224L17.7209 3.55338H22.9921V2.9292H1.00098V3.55338H7.03714L31.7699 68.5206H32.1193L51.802 3.55338H57.0643Z" fill="black"/>
</svg>
